<?xml version="1.0" encoding="UTF-8"?>
<svg id="Layer_5" xmlns="http://www.w3.org/2000/svg" xmlns:xlink="http://www.w3.org/1999/xlink" version="1.1" viewBox="0 0 900 354.607">
  <!-- Generator: Adobe Illustrator 29.5.1, SVG Export Plug-In . SVG Version: 2.1.0 Build 141)  -->
  <defs>
    <style>
      .st0 {
        fill: #231f20;
      }

      .st1 {
        fill: #f0f;
      }

      .st2 {
        fill: url(#linear-gradient);
      }

      .st3 {
        fill: aqua;
      }

      .st4 {
        fill: #21409a;
      }
    </style>
    <linearGradient id="linear-gradient" x1="294.105" y1="297.754" x2="294.105" y2="228.846" gradientUnits="userSpaceOnUse">
      <stop offset="0" stop-color="#00001f"/>
      <stop offset=".999" stop-color="aqua"/>
    </linearGradient>
  </defs>
  <g>
    <path class="st1" d="M861.451,186.84c-3.192-3.083-17.926-2.433-22.627-2.75-5.133-.346-10.396-1.355-15.472-2.167-6.063-28.396-19.906-54.363-40.954-74.37-35.488-33.734-86.323-53.224-135.635-50.436-.836.047-5.729.612-5.964.942-.029,1.132.793,2.131,1.402,3.031,3.326,4.911,8.241,9.621,11.905,14.473,5.327,7.053,12.064,17.768,15.573,25.833.427.981,1.672,3.62,1.044,4.517-.667.465-1.698.338-2.47.28-3.596-.273-7.9-1.721-11.701-2.101-39.946-3.989-77.795,14.285-101.65,45.816-.675.892-3.065,3.937-2.751,4.865l.505.431c8.448,1.152,16.918,2.102,25.257,3.885,18.562,3.97,36.975,11.359,50.605,24.854-14.071,6.669-26.252,18.125-35.097,30.844-7.707,11.083-13.005,24.383-17.059,37.229-2.643,8.376-5.346,17.429-5.517,26.228,1.381.197,2.563-.45,3.793-.965,6.091-2.551,12.725-6.988,18.802-10.032,27.222-13.635,49.495-18.986,80.345-17.538,2.436.114,11.872.878,13.623,1.715,1.307.626,4.257,3.868,5.7,5.036,20.615,16.673,44.371,28.074,71.641,22.871,1.739-.332,3.575-1.094,5.345-1.402,6.643,5.107,16.016,10.442,24.507,6.709,3.067-1.349,5.516-4.059,3.932-7.523-2.156-4.714-11.446-5.315-15.698-7.612,5.941-2.605,11.076-6.505,15.803-10.875,2.266-2.095,5.881-6.665,8.138-8.126,1.14-.738,3.185-1.189,4.55-1.891,6.926-3.564,14.556-9.089,18.244-16.11.797-1.518,1.829-5.21,2.517-6.071,1.711-2.138,8.155-6.257,10.729-8.595,4.986-4.528,10.072-10.258,14.078-15.675,2.389-3.23,8.475-11.535,4.556-15.321Z"/>
    <path class="st3" d="M872.451,197.84c-3.192-3.083-17.926-2.433-22.627-2.75-5.133-.346-10.396-1.355-15.472-2.167-6.063-28.396-19.906-54.363-40.954-74.37-35.488-33.734-86.323-53.224-135.635-50.436-.836.047-5.729.612-5.964.942-.029,1.132.793,2.131,1.402,3.031,3.326,4.911,8.241,9.621,11.905,14.473,5.327,7.053,12.064,17.768,15.573,25.833.427.981,1.672,3.62,1.044,4.517-.667.465-1.698.338-2.47.28-3.596-.273-7.9-1.721-11.701-2.101-39.946-3.989-77.795,14.285-101.65,45.816-.675.892-3.065,3.937-2.751,4.865l.505.431c8.448,1.152,16.918,2.102,25.257,3.885,18.562,3.97,36.975,11.359,50.605,24.854-14.071,6.669-26.252,18.125-35.097,30.844-7.707,11.083-13.005,24.383-17.059,37.229-2.643,8.376-5.346,17.429-5.517,26.228,1.381.197,2.563-.45,3.793-.965,6.091-2.551,12.725-6.988,18.802-10.032,27.222-13.635,49.495-18.986,80.345-17.538,2.436.114,11.872.878,13.623,1.715,1.307.626,4.257,3.868,5.7,5.036,20.615,16.673,44.371,28.074,71.641,22.871,1.739-.332,3.575-1.094,5.345-1.402,6.643,5.107,16.016,10.442,24.507,6.709,3.067-1.349,5.516-4.059,3.932-7.523-2.156-4.714-11.446-5.315-15.698-7.612,5.941-2.605,11.076-6.505,15.803-10.875,2.266-2.095,5.881-6.665,8.138-8.126,1.14-.738,3.185-1.189,4.55-1.891,6.926-3.564,14.556-9.089,18.244-16.11.797-1.518,1.829-5.21,2.517-6.071,1.711-2.138,8.155-6.257,10.729-8.595,4.986-4.528,10.072-10.258,14.078-15.675,2.389-3.23,8.475-11.535,4.556-15.321Z"/>
    <path class="st4" d="M867.451,192.84c-3.192-3.083-17.926-2.433-22.627-2.75-5.133-.346-10.396-1.355-15.472-2.167-6.063-28.396-19.906-54.363-40.954-74.37-35.488-33.734-86.323-53.224-135.635-50.436-.836.047-5.729.612-5.964.942-.029,1.132.793,2.131,1.402,3.031,3.326,4.911,8.241,9.621,11.905,14.473,5.327,7.053,12.064,17.768,15.573,25.833.427.981,1.672,3.62,1.044,4.517-.667.465-1.698.338-2.47.28-3.596-.273-7.9-1.721-11.701-2.101-39.946-3.989-77.795,14.285-101.65,45.816-.675.892-3.065,3.937-2.751,4.865l.505.431c8.448,1.152,16.918,2.102,25.257,3.885,18.562,3.97,36.975,11.359,50.605,24.854-14.071,6.669-26.252,18.125-35.097,30.844-7.707,11.083-13.005,24.383-17.059,37.229-2.643,8.376-5.346,17.429-5.517,26.228,1.381.197,2.563-.45,3.793-.965,6.091-2.551,12.725-6.988,18.802-10.032,27.222-13.635,49.495-18.986,80.345-17.538,2.436.114,11.872.878,13.623,1.715,1.307.626,4.257,3.868,5.7,5.036,20.615,16.673,44.371,28.074,71.641,22.871,1.739-.332,3.575-1.094,5.345-1.402,6.643,5.107,16.016,10.442,24.507,6.709,3.067-1.349,5.516-4.059,3.932-7.523-2.156-4.714-11.446-5.315-15.698-7.612,5.941-2.605,11.076-6.505,15.803-10.875,2.266-2.095,5.881-6.665,8.138-8.126,1.14-.738,3.185-1.189,4.55-1.891,6.926-3.564,14.556-9.089,18.244-16.11.797-1.518,1.829-5.21,2.517-6.071,1.711-2.138,8.155-6.257,10.729-8.595,4.986-4.528,10.072-10.258,14.078-15.675,2.389-3.23,8.475-11.535,4.556-15.321Z"/>
    <rect class="st1" x="760.378" y="125.175" width="38.045" height="4.518"/>
    <rect class="st1" x="582.706" y="192.939" width="57.744" height="11.294"/>
    <rect class="st1" x="818.481" y="244.288" width="36.957" height="6.252"/>
    <rect class="st1" x="627.458" y="67.854" width="50.306" height="9.886"/>
    <rect class="st3" x="591.741" y="256.186" width="62.64" height="5.648"/>
    <rect class="st3" x="805.2" y="165.834" width="34.186" height="5.537"/>
    <rect class="st3" x="598.518" y="100.328" width="54.093" height="9.228"/>
  </g>
  <g>
    <g>
      <g>
        <path class="st3" d="M131.13,148.091c-6.218-5.572-13.61-8.682-22.177-9.327-8.2-.643-13.956-1.496-17.272-2.556-1.417-.452-2.444-1.087-3.088-1.902h8.21c-.862-1.091-1.033-2.506-.505-4.247.154-.51.444-.975.846-1.402h-8.21c1.994-2.118,7.025-3.219,15.113-3.296,9.718-.091,17.57.276,23.559,1.105l7.876-28.05c-14.647-1.935-28.695-2.671-42.144-2.211-14.832-.46-26.785,2.763-35.857,9.672-8.062,6.138-12.532,13.734-13.432,22.779h8.21c-.113,1.137-.178,2.292-.178,3.475-.011.735-.005,1.46.018,2.175h-8.21c.346,10.933,4.671,19.512,12.971,25.737,8.014,5.067,15.29,7.623,21.832,7.669,6.54.048,11.514.669,14.923,1.865,3.776,1.475,4.674,3.824,2.694,7.047-1.982,3.226-14.625,4.331-37.93,3.316l-.827,2.584h5.415v8.731l-1.366,4.265h-8.21l-3.993,12.47c20.45,2.211,36.57,2.764,48.362,1.658,11.697.367,21.854-3.085,30.468-10.363,8.612-7.276,12.689-16.35,12.229-27.221,0-10.408-3.109-18.399-9.327-23.973Z"/>
        <polygon class="st3" points="396.5 98.002 361.126 98.002 361.126 151.061 336.985 102.778 345.195 102.778 342.807 98.002 289.747 98.002 289.747 102.778 281.537 102.778 281.537 146.361 289.747 146.361 289.747 157.488 281.537 157.488 281.537 208.543 316.909 208.543 316.909 155.483 341.338 197.361 346.265 197.361 352.788 208.543 401.426 208.543 401.426 197.361 396.5 197.361 396.5 98.002"/>
        <path class="st3" d="M449.56,98.002h-44.217v99.359h8.21v11.182h36.007v-56.782h4.926v-11.891h-4.926v-41.868ZM432.378,151.761h-4.926v-11.891h4.926v11.891Z"/>
        <path class="st3" d="M272.354,146.361c-1.462-15.569-7.28-28.012-17.485-37.305-11.33-10.316-26.025-15.476-44.079-15.476-17.872,0-32.472,5.596-43.802,16.789-5.549,5.481-9.73,11.58-12.562,18.288h8.21c-.776,1.838-1.458,3.719-2.03,5.649h-8.21c-1.602,5.408-2.404,11.177-2.404,17.308,0,16.398,5.873,30.354,17.618,41.868,11.745,11.516,26.137,17.272,43.18,17.272,16.948,0,31.505-5.756,43.664-17.272,10.681-10.114,16.667-22.113,17.966-35.994h8.21c.18-1.922.273-3.879.273-5.874-.055-1.793-.178-3.537-.339-5.254h-8.21ZM232.102,157.488c-2.426,4.273-5.93,7.939-10.534,10.984-5.896,4.331-12.045,6.587-18.447,6.771-6.404.186-11.538-2.349-15.407-7.6-3.685-5.435-4.377-11.145-2.073-17.134,2.302-5.987,6.447-11.054,12.436-15.199,5.987-4.145,12.181-6.356,18.585-6.632,6.401-.276,11.538,2.258,15.407,7.6,2.15,3.254,3.236,6.616,3.274,10.084h8.21c.025,2.325-.416,4.698-1.339,7.119-.532,1.393-1.173,2.725-1.902,4.008h-8.21Z"/>
        <path class="st3" d="M566.913,202.952l-5.526-14.864h-8.21l-11.453-30.809c-2.857,3.133-7.095,6.771-12.712,10.916-5.62,3.869-11.423,5.689-17.41,5.458-5.989-.229-10.318-2.463-12.989-6.702-3.869-4.236-5.022-8.981-3.455-14.232,1.566-5.251,4.975-9.994,10.225-14.232,5.528-4.605,11.1-7.531,16.72-8.774,5.618-1.244,9.994-.898,13.127,1.036,3.131,1.935,5.342,3.869,6.632,5.803l12.16-41.315c-9.949-1.749-22.294-2.302-37.031-1.658-16.767.369-30.723,6.197-41.868,17.479-8.271,8.373-13.364,17.978-15.295,28.81h4.926c-.672,3.767-.967,7.68-.872,11.745,0,.049.003.097.003.146h-4.926c.032,16.515,5.418,30.101,16.164,40.754,10.778,10.687,24.734,16.581,41.868,17.687,16.304,0,30.49-1.658,42.558-4.974l-.846-2.275h8.21ZM515.48,202.952v-14.864h8.21v14.864h-8.21Z"/>
      </g>
      <g>
        <path class="st1" d="M122.287,142.75c-6.218-5.572-13.61-8.682-22.177-9.327-8.2-.643-13.956-1.496-17.272-2.556-1.417-.452-2.444-1.087-3.088-1.902h8.21c-.862-1.091-1.033-2.506-.505-4.247.154-.51.444-.975.846-1.402h-8.21c1.994-2.118,7.025-3.219,15.113-3.296,9.718-.091,17.57.276,23.559,1.105l7.876-28.05c-14.647-1.935-28.695-2.671-42.144-2.211-14.832-.46-26.785,2.763-35.857,9.672-8.062,6.138-12.532,13.734-13.432,22.779h8.21c-.113,1.137-.178,2.292-.178,3.475-.011.735-.005,1.46.018,2.175h-8.21c.346,10.933,4.671,19.512,12.971,25.737,8.014,5.067,15.29,7.623,21.832,7.669,6.54.048,11.514.669,14.923,1.865,3.776,1.475,4.674,3.824,2.694,7.047-1.982,3.226-14.625,4.331-37.93,3.316l-.827,2.584h5.415v8.731l-1.366,4.265h-8.21l-3.993,12.47c20.45,2.211,36.57,2.764,48.362,1.658,11.697.367,21.854-3.085,30.468-10.363,8.612-7.276,12.689-16.35,12.229-27.221,0-10.408-3.109-18.399-9.327-23.973Z"/>
        <polygon class="st1" points="387.656 92.661 352.283 92.661 352.283 145.721 328.142 97.438 336.352 97.438 333.964 92.661 280.904 92.661 280.904 97.438 272.693 97.438 272.693 141.02 280.904 141.02 280.904 152.147 272.693 152.147 272.693 203.203 308.066 203.203 308.066 150.143 332.495 192.021 337.421 192.021 343.944 203.203 392.582 203.203 392.582 192.021 387.656 192.021 387.656 92.661"/>
        <path class="st1" d="M440.717,92.661h-44.217v99.359h8.21v11.182h36.007v-56.782h4.926v-11.891h-4.926v-41.868ZM423.535,146.42h-4.926v-11.891h4.926v11.891Z"/>
        <path class="st1" d="M263.51,141.02c-1.462-15.569-7.28-28.012-17.485-37.305-11.33-10.316-26.025-15.476-44.079-15.476-17.872,0-32.472,5.596-43.802,16.789-5.549,5.481-9.73,11.58-12.562,18.288h8.21c-.776,1.838-1.458,3.719-2.03,5.649h-8.21c-1.602,5.408-2.404,11.177-2.404,17.308,0,16.398,5.873,30.354,17.618,41.868,11.745,11.516,26.137,17.272,43.18,17.272,16.948,0,31.505-5.756,43.664-17.272,10.681-10.114,16.667-22.113,17.966-35.994h8.21c.18-1.922.273-3.879.273-5.874-.055-1.793-.178-3.537-.339-5.254h-8.21ZM223.258,152.147c-2.426,4.273-5.93,7.939-10.534,10.984-5.896,4.331-12.045,6.587-18.447,6.771-6.404.186-11.538-2.349-15.407-7.6-3.685-5.435-4.377-11.145-2.073-17.134,2.302-5.987,6.447-11.054,12.436-15.199,5.987-4.145,12.181-6.356,18.585-6.632,6.401-.276,11.538,2.258,15.407,7.6,2.15,3.254,3.236,6.616,3.274,10.084h8.21c.025,2.325-.416,4.698-1.339,7.119-.532,1.393-1.173,2.725-1.902,4.008h-8.21Z"/>
        <path class="st1" d="M558.07,197.612l-5.526-14.864h-8.21l-11.453-30.809c-2.857,3.133-7.095,6.771-12.712,10.916-5.62,3.869-11.423,5.689-17.41,5.458-5.989-.229-10.318-2.463-12.989-6.702-3.869-4.236-5.022-8.981-3.455-14.232,1.566-5.251,4.975-9.994,10.225-14.232,5.528-4.605,11.1-7.531,16.72-8.774,5.618-1.244,9.994-.898,13.127,1.036,3.131,1.935,5.342,3.869,6.632,5.803l12.16-41.315c-9.949-1.749-22.294-2.302-37.031-1.658-16.767.369-30.723,6.197-41.868,17.479-8.271,8.373-13.364,17.978-15.295,28.81h4.926c-.672,3.767-.967,7.68-.872,11.745,0,.049.003.097.003.146h-4.926c.032,16.515,5.418,30.101,16.164,40.754,10.778,10.687,24.734,16.581,41.868,17.687,16.304,0,30.49-1.658,42.558-4.974l-.846-2.275h8.21ZM506.637,197.612v-14.864h8.21v14.864h-8.21Z"/>
      </g>
      <g>
        <path class="st0" d="M126.161,146.311c-6.218-5.572-13.61-8.682-22.177-9.327-8.2-.643-13.956-1.496-17.272-2.556-1.417-.452-2.444-1.087-3.088-1.902h8.21c-.862-1.091-1.033-2.506-.505-4.247.154-.51.444-.975.846-1.402h-8.21c1.994-2.118,7.025-3.219,15.113-3.296,9.718-.091,17.57.276,23.559,1.105l7.876-28.05c-14.647-1.935-28.695-2.671-42.144-2.211-14.832-.46-26.785,2.763-35.857,9.672-8.062,6.138-12.532,13.734-13.432,22.779h8.21c-.113,1.137-.178,2.292-.178,3.475-.011.735-.005,1.46.018,2.175h-8.21c.346,10.933,4.671,19.512,12.971,25.737,8.014,5.067,15.29,7.623,21.832,7.669,6.54.048,11.514.669,14.923,1.865,3.776,1.475,4.674,3.824,2.694,7.047-1.982,3.226-14.625,4.331-37.93,3.316l-.827,2.584h5.415v8.731l-1.366,4.265h-8.21l-3.993,12.47c20.45,2.211,36.57,2.764,48.362,1.658,11.697.367,21.854-3.085,30.468-10.363,8.612-7.276,12.689-16.35,12.229-27.221,0-10.408-3.109-18.399-9.327-23.973Z"/>
        <polygon class="st0" points="391.53 96.222 356.157 96.222 356.157 149.282 332.016 100.999 340.226 100.999 337.838 96.222 284.777 96.222 284.777 100.999 276.567 100.999 276.567 144.581 284.777 144.581 284.777 155.708 276.567 155.708 276.567 206.763 311.94 206.763 311.94 153.703 336.369 195.581 341.295 195.581 347.818 206.763 396.456 206.763 396.456 195.581 391.53 195.581 391.53 96.222"/>
        <path class="st0" d="M444.591,96.222h-44.217v99.359h8.21v11.182h36.007v-56.782h4.926v-11.891h-4.926v-41.868ZM427.409,149.981h-4.926v-11.891h4.926v11.891Z"/>
        <path class="st0" d="M267.384,144.581c-1.462-15.569-7.28-28.012-17.485-37.305-11.33-10.316-26.025-15.476-44.079-15.476-17.872,0-32.472,5.596-43.802,16.789-5.549,5.481-9.73,11.58-12.562,18.288h8.21c-.776,1.838-1.458,3.719-2.03,5.649h-8.21c-1.602,5.408-2.404,11.177-2.404,17.308,0,16.398,5.873,30.354,17.618,41.868,11.745,11.516,26.137,17.272,43.18,17.272,16.948,0,31.505-5.756,43.664-17.272,10.681-10.114,16.667-22.113,17.966-35.994h8.21c.18-1.922.273-3.879.273-5.874-.055-1.793-.178-3.537-.339-5.254h-8.21ZM227.132,155.708c-2.426,4.273-5.93,7.939-10.534,10.984-5.896,4.331-12.045,6.587-18.447,6.771-6.404.186-11.538-2.349-15.407-7.6-3.685-5.435-4.377-11.145-2.073-17.134,2.302-5.987,6.447-11.054,12.436-15.199,5.987-4.145,12.181-6.356,18.585-6.632,6.401-.276,11.538,2.258,15.407,7.6,2.15,3.254,3.236,6.616,3.274,10.084h8.21c.025,2.325-.416,4.698-1.339,7.119-.532,1.393-1.173,2.725-1.902,4.008h-8.21Z"/>
        <path class="st0" d="M561.944,201.172l-5.526-14.864h-8.21l-11.453-30.809c-2.857,3.133-7.095,6.771-12.712,10.916-5.62,3.869-11.423,5.689-17.41,5.458-5.989-.229-10.318-2.463-12.989-6.702-3.869-4.236-5.022-8.981-3.455-14.232,1.566-5.251,4.975-9.994,10.225-14.232,5.528-4.605,11.1-7.531,16.72-8.774,5.618-1.244,9.994-.898,13.127,1.036,3.131,1.935,5.342,3.869,6.632,5.803l12.16-41.315c-9.949-1.749-22.294-2.302-37.031-1.658-16.767.369-30.723,6.197-41.868,17.479-8.271,8.373-13.364,17.978-15.295,28.81h4.926c-.672,3.767-.967,7.68-.872,11.745,0,.049.003.097.003.146h-4.926c.032,16.515,5.418,30.101,16.164,40.754,10.778,10.687,24.734,16.581,41.868,17.687,16.304,0,30.49-1.658,42.558-4.974l-.846-2.275h8.21ZM510.51,201.172v-14.864h8.21v14.864h-8.21Z"/>
      </g>
    </g>
    <path class="st2" d="M285.905,228.846h-23.623l-8.355,13.41h23.623l8.355-13.41ZM244.696,238.749c-.86-1.513-1.805-3.009-2.837-4.487-1.031-1.479-2.046-2.751-3.043-3.817s-1.736-1.599-2.218-1.599h-70.455l-8.355,13.41h88.507c-.206-.825-.739-1.994-1.599-3.507ZM348.933,228.846h-23.622l-8.355,13.41h23.622l8.355-13.41ZM462.402,242.256l8.355-13.41h-84.587l-8.355,13.41h84.587ZM94.554,242.256l-7.221-13.41h-26.923l7.221,13.41,1.754,3.404,5.467,10.212-48.586,27.646h26.924l48.792-27.542-5.57-10.316-1.857-3.404ZM371.214,242.256l8.355-13.41h-24.035l-8.355,13.41h24.035ZM516.351,245.66h-23.932l-32.185,47.142h13.101c.068,0,.962-.344,2.682-1.031l6.705-2.682c2.751-1.1,5.846-2.355,9.284-3.765,3.439-1.41,6.929-2.837,10.471-4.281,3.542-1.444,6.963-2.854,10.264-4.229l8.665-3.61,5.055-2.579h-25.686l15.576-24.964ZM477.358,228.846l-8.355,13.41h84.587l8.355-13.41h-84.587ZM399.581,245.66h-23.933l-23.622,37.858h23.932l12.998-20.734h60.346l8.355-13.513h-60.346l2.27-3.61ZM314.789,245.66l-2.269,3.61h-39.405l2.269-3.61h-23.622l-23.623,37.858h23.623l12.997-20.734h39.405l-12.998,20.734h23.622l23.623-37.858h-23.623ZM345.012,245.66l-23.622,37.858,15.163,14.235,32.494-52.093h-24.035ZM177.078,249.374l2.269-3.714h-23.725l-10.625,17.124h65.813l-4.539,7.221h-64.885c.206.825.739,1.994,1.599,3.507.859,1.513,1.805,3.009,2.837,4.487,1.031,1.479,2.046,2.768,3.043,3.868.997,1.1,1.736,1.651,2.218,1.651h70.455l21.353-34.144h-65.813Z"/>
  </g>
</svg>