<?xml version="1.0" encoding="UTF-8"?>
<svg id="Layer_5" xmlns="http://www.w3.org/2000/svg" version="1.1" viewBox="0 0 362 362">
  <!-- Generator: Adobe Illustrator 29.5.1, SVG Export Plug-In . SVG Version: 2.1.0 Build 141)  -->
  <defs>
    <style>
      .st0 {
        fill: #f0f;
      }

      .st1 {
        fill: aqua;
      }

      .st2 {
        fill: #21409a;
      }
    </style>
  </defs>
  <path class="st0" d="M329.152,154.698c-3.192-3.083-17.926-2.433-22.627-2.75-5.133-.346-10.396-1.355-15.472-2.167-6.063-28.396-19.906-54.363-40.954-74.37-35.488-33.734-86.323-53.224-135.635-50.436-.836.047-5.729.612-5.964.942-.029,1.132.793,2.131,1.402,3.031,3.326,4.911,8.241,9.621,11.905,14.473,5.327,7.053,12.064,17.768,15.573,25.833.427.981,1.672,3.62,1.044,4.517-.667.465-1.698.338-2.47.28-3.596-.273-7.9-1.721-11.701-2.101-39.946-3.989-77.795,14.285-101.65,45.816-.675.892-3.065,3.937-2.751,4.865l.505.431c8.448,1.152,16.918,2.102,25.257,3.885,18.562,3.97,36.975,11.359,50.605,24.854-14.071,6.669-26.252,18.125-35.097,30.844-7.707,11.083-13.005,24.383-17.059,37.229-2.643,8.376-5.346,17.429-5.517,26.228,1.381.197,2.563-.45,3.793-.965,6.091-2.551,12.725-6.988,18.802-10.032,27.222-13.635,49.495-18.986,80.345-17.538,2.436.114,11.872.878,13.623,1.715,1.307.626,4.257,3.868,5.7,5.036,20.615,16.673,44.371,28.074,71.641,22.871,1.739-.332,3.575-1.094,5.345-1.402,6.643,5.107,16.016,10.442,24.507,6.709,3.067-1.349,5.516-4.059,3.932-7.523-2.156-4.714-11.446-5.315-15.698-7.612,5.941-2.605,11.076-6.505,15.803-10.875,2.266-2.095,5.881-6.665,8.138-8.126,1.14-.738,3.185-1.189,4.55-1.891,6.926-3.564,14.556-9.089,18.244-16.11.797-1.518,1.829-5.21,2.517-6.071,1.711-2.138,8.155-6.257,10.729-8.595,4.986-4.528,10.072-10.258,14.078-15.675,2.389-3.23,8.475-11.535,4.556-15.321Z"/>
  <path class="st1" d="M340.152,165.698c-3.192-3.083-17.926-2.433-22.627-2.75-5.133-.346-10.396-1.355-15.472-2.167-6.063-28.396-19.906-54.363-40.954-74.37-35.488-33.734-86.323-53.224-135.635-50.436-.836.047-5.729.612-5.964.942-.029,1.132.793,2.131,1.402,3.031,3.326,4.911,8.241,9.621,11.905,14.473,5.327,7.053,12.064,17.768,15.573,25.833.427.981,1.672,3.62,1.044,4.517-.667.465-1.698.338-2.47.28-3.596-.273-7.9-1.721-11.701-2.101-39.946-3.989-77.795,14.285-101.65,45.816-.675.892-3.065,3.937-2.751,4.865l.505.431c8.448,1.152,16.918,2.102,25.257,3.885,18.562,3.97,36.975,11.359,50.605,24.854-14.071,6.669-26.252,18.125-35.097,30.844-7.707,11.083-13.005,24.383-17.059,37.229-2.643,8.376-5.346,17.429-5.517,26.228,1.381.197,2.563-.45,3.793-.965,6.091-2.551,12.725-6.988,18.802-10.032,27.222-13.635,49.495-18.986,80.345-17.538,2.436.114,11.872.878,13.623,1.715,1.307.626,4.257,3.868,5.7,5.036,20.615,16.673,44.371,28.074,71.641,22.871,1.739-.332,3.575-1.094,5.345-1.402,6.643,5.107,16.016,10.442,24.507,6.709,3.067-1.349,5.516-4.059,3.932-7.523-2.156-4.714-11.446-5.315-15.698-7.612,5.941-2.605,11.076-6.505,15.803-10.875,2.266-2.095,5.881-6.665,8.138-8.126,1.14-.738,3.185-1.189,4.55-1.891,6.926-3.564,14.556-9.089,18.244-16.11.797-1.518,1.829-5.21,2.517-6.071,1.711-2.138,8.155-6.257,10.729-8.595,4.986-4.528,10.072-10.258,14.078-15.675,2.389-3.23,8.475-11.535,4.556-15.321Z"/>
  <path class="st2" d="M335.152,160.698c-3.192-3.083-17.926-2.433-22.627-2.75-5.133-.346-10.396-1.355-15.472-2.167-6.063-28.396-19.906-54.363-40.954-74.37-35.488-33.734-86.323-53.224-135.635-50.436-.836.047-5.729.612-5.964.942-.029,1.132.793,2.131,1.402,3.031,3.326,4.911,8.241,9.621,11.905,14.473,5.327,7.053,12.064,17.768,15.573,25.833.427.981,1.672,3.62,1.044,4.517-.667.465-1.698.338-2.47.28-3.596-.273-7.9-1.721-11.701-2.101-39.946-3.989-77.795,14.285-101.65,45.816-.675.892-3.065,3.937-2.751,4.865l.505.431c8.448,1.152,16.918,2.102,25.257,3.885,18.562,3.97,36.975,11.359,50.605,24.854-14.071,6.669-26.252,18.125-35.097,30.844-7.707,11.083-13.005,24.383-17.059,37.229-2.643,8.376-5.346,17.429-5.517,26.228,1.381.197,2.563-.45,3.793-.965,6.091-2.551,12.725-6.988,18.802-10.032,27.222-13.635,49.495-18.986,80.345-17.538,2.436.114,11.872.878,13.623,1.715,1.307.626,4.257,3.868,5.7,5.036,20.615,16.673,44.371,28.074,71.641,22.871,1.739-.332,3.575-1.094,5.345-1.402,6.643,5.107,16.016,10.442,24.507,6.709,3.067-1.349,5.516-4.059,3.932-7.523-2.156-4.714-11.446-5.315-15.698-7.612,5.941-2.605,11.076-6.505,15.803-10.875,2.266-2.095,5.881-6.665,8.138-8.126,1.14-.738,3.185-1.189,4.55-1.891,6.926-3.564,14.556-9.089,18.244-16.11.797-1.518,1.829-5.21,2.517-6.071,1.711-2.138,8.155-6.257,10.729-8.595,4.986-4.528,10.072-10.258,14.078-15.675,2.389-3.23,8.475-11.535,4.556-15.321Z"/>
  <rect class="st0" x="228.079" y="93.033" width="38.045" height="4.518"/>
  <rect class="st0" x="50.407" y="160.798" width="57.744" height="11.294"/>
  <rect class="st0" x="286.182" y="212.146" width="36.957" height="6.252"/>
  <rect class="st0" x="95.159" y="35.712" width="50.306" height="9.886"/>
  <rect class="st1" x="59.442" y="224.044" width="62.64" height="5.648"/>
  <rect class="st1" x="272.9" y="133.692" width="34.186" height="5.537"/>
  <rect class="st1" x="66.218" y="68.186" width="54.093" height="9.228"/>
</svg>