# Blender 4.0.2
# www.blender.org
mtllib gear1.mtl
o Cylinder
v 0.000000 -0.125000 -0.746633
v 0.000000 0.125000 -0.746633
v 0.193243 -0.125000 -0.721192
v 0.193243 0.125000 -0.721192
v 0.373316 -0.125000 -0.646603
v 0.373316 0.125000 -0.646603
v 0.527949 -0.125000 -0.527949
v 0.527949 0.125000 -0.527949
v 0.646603 -0.125000 -0.373316
v 0.646603 0.125000 -0.373316
v 0.721192 -0.125000 -0.193243
v 0.721192 0.125000 -0.193243
v 0.746633 -0.125000 0.000000
v 0.746633 0.125000 0.000000
v 0.721192 -0.125000 0.193243
v 0.721192 0.125000 0.193243
v 0.646603 -0.125000 0.373316
v 0.646603 0.125000 0.373316
v 0.527949 -0.125000 0.527949
v 0.527949 0.125000 0.527949
v 0.373316 -0.125000 0.646603
v 0.373316 0.125000 0.646603
v 0.193243 -0.125000 0.721192
v 0.193243 0.125000 0.721192
v 0.000000 -0.125000 0.746633
v 0.000000 0.125000 0.746633
v -0.193243 -0.125000 0.721192
v -0.193243 0.125000 0.721192
v -0.373316 -0.125000 0.646603
v -0.373316 0.125000 0.646603
v -0.527949 -0.125000 0.527949
v -0.527949 0.125000 0.527949
v -0.646603 -0.125000 0.373316
v -0.646603 0.125000 0.373316
v -0.721192 -0.125000 0.193243
v -0.721192 0.125000 0.193243
v -0.746633 -0.125000 0.000000
v -0.746633 0.125000 0.000000
v -0.721192 -0.125000 -0.193243
v -0.721192 0.125000 -0.193243
v -0.646603 -0.125000 -0.373316
v -0.646603 0.125000 -0.373316
v -0.527949 -0.125000 -0.527949
v -0.527949 0.125000 -0.527949
v -0.373316 -0.125000 -0.646603
v -0.373316 0.125000 -0.646603
v -0.193243 -0.125000 -0.721192
v -0.193243 0.125000 -0.721192
v 0.000000 -0.125000 -1.000000
v 0.258819 -0.125000 -0.965926
v 0.258819 0.125000 -0.965926
v 0.000000 0.125000 -1.000000
v 0.500000 -0.125000 -0.866025
v 0.500000 0.125000 -0.866025
v 0.707107 -0.125000 -0.707107
v 0.707107 0.125000 -0.707107
v 0.866025 -0.125000 -0.500000
v 0.866025 0.125000 -0.500000
v 0.965926 -0.125000 -0.258819
v 0.965926 0.125000 -0.258819
v 1.000000 -0.125000 0.000000
v 1.000000 0.125000 0.000000
v 0.965926 -0.125000 0.258819
v 0.965926 0.125000 0.258819
v 0.866025 -0.125000 0.500000
v 0.866025 0.125000 0.500000
v 0.707107 -0.125000 0.707107
v 0.707107 0.125000 0.707107
v 0.500000 -0.125000 0.866025
v 0.500000 0.125000 0.866025
v 0.258819 -0.125000 0.965926
v 0.258819 0.125000 0.965926
v 0.000000 -0.125000 1.000000
v 0.000000 0.125000 1.000000
v -0.258819 -0.125000 0.965926
v -0.258819 0.125000 0.965926
v -0.500000 -0.125000 0.866025
v -0.500000 0.125000 0.866025
v -0.707107 -0.125000 0.707107
v -0.707107 0.125000 0.707107
v -0.866025 -0.125000 0.500000
v -0.866025 0.125000 0.500000
v -0.965926 -0.125000 0.258819
v -0.965926 0.125000 0.258819
v -1.000000 -0.125000 0.000000
v -1.000000 0.125000 0.000000
v -0.965926 -0.125000 -0.258819
v -0.965926 0.125000 -0.258819
v -0.866025 -0.125000 -0.500000
v -0.866025 0.125000 -0.500000
v -0.707107 -0.125000 -0.707107
v -0.707107 0.125000 -0.707107
v -0.500000 -0.125000 -0.866025
v -0.500000 0.125000 -0.866025
v -0.258819 -0.125000 -0.965926
v -0.258819 0.125000 -0.965926
v -0.354490 0.125000 1.196896
v -0.354490 -0.125000 1.196896
v -0.595671 -0.125000 1.096995
v -0.595671 0.125000 1.096995
v -0.905445 0.125000 0.859297
v -0.905445 -0.125000 0.859297
v -1.064364 -0.125000 0.652190
v -1.064364 0.125000 0.652190
v -1.213787 0.125000 0.291451
v -1.213787 -0.125000 0.291451
v -1.247861 -0.125000 0.032632
v -1.247861 0.125000 0.032632
v -1.196896 0.125000 -0.354490
v -1.196896 -0.125000 -0.354490
v -1.096995 -0.125000 -0.595671
v -1.096995 0.125000 -0.595671
v -0.859297 0.125000 -0.905445
v -0.859297 -0.125000 -0.905445
v -0.652190 -0.125000 -1.064364
v -0.652190 0.125000 -1.064364
v -0.032632 -0.125000 -1.247861
v -0.032632 0.125000 -1.247861
v -0.291451 0.125000 -1.213787
v -0.291451 -0.125000 -1.213787
v 0.354490 0.125000 -1.196896
v 0.354490 -0.125000 -1.196896
v 0.595671 -0.125000 -1.096995
v 0.595671 0.125000 -1.096995
v 0.905445 0.125000 -0.859297
v 0.905445 -0.125000 -0.859297
v 1.064364 -0.125000 -0.652190
v 1.064364 0.125000 -0.652190
v 1.213787 0.125000 -0.291451
v 1.213787 -0.125000 -0.291451
v 1.247861 -0.125000 -0.032632
v 1.247861 0.125000 -0.032632
v 1.196896 0.125000 0.354490
v 1.196896 -0.125000 0.354490
v 1.096995 -0.125000 0.595671
v 1.096995 0.125000 0.595671
v 0.859297 0.125000 0.905445
v 0.859297 -0.125000 0.905445
v 0.652190 -0.125000 1.064364
v 0.652190 0.125000 1.064364
v 0.291451 0.125000 1.213787
v 0.291451 -0.125000 1.213787
v 0.032632 -0.125000 1.247861
v 0.032632 0.125000 1.247861
vn 0.1305 -0.0000 -0.9914
vn -0.0000 1.0000 -0.0000
vn 0.6088 -0.0000 -0.7934
vn 0.9239 -0.0000 -0.3827
vn 0.1305 -0.0000 0.9914
vn 0.9914 -0.0000 0.1305
vn 0.7934 -0.0000 0.6088
vn 0.3827 -0.0000 0.9239
vn -0.1305 -0.0000 0.9914
vn -0.9239 -0.0000 -0.3827
vn -0.6088 -0.0000 0.7934
vn -0.9239 -0.0000 0.3827
vn -0.9914 -0.0000 -0.1305
vn -0.7934 -0.0000 -0.6088
vn -0.3827 -0.0000 -0.9239
vn -0.0000 -1.0000 -0.0000
vn 0.7934 -0.0000 -0.6088
vn 0.9914 -0.0000 -0.1305
vn 0.9239 -0.0000 0.3827
vn 0.6088 -0.0000 0.7934
vn -0.3827 -0.0000 0.9239
vn -0.7934 -0.0000 0.6088
vn -0.9914 -0.0000 0.1305
vn -0.6088 -0.0000 -0.7934
vn -0.1305 -0.0000 -0.9914
vn 0.3827 -0.0000 -0.9239
vt 1.000000 0.500000
vt 1.000000 1.000000
vt 0.958333 1.000000
vt 0.958333 0.500000
vt 0.312117 0.481822
vt 0.370000 0.457846
vt 0.916667 0.500000
vt 0.916667 1.000000
vt 0.875000 1.000000
vt 0.875000 0.500000
vt 0.419706 0.419706
vt 0.457846 0.370000
vt 0.833333 0.500000
vt 0.833333 1.000000
vt 0.791667 1.000000
vt 0.791667 0.500000
vt 0.750000 1.000000
vt 0.750000 0.500000
vt 0.708333 1.000000
vt 0.708333 0.500000
vt 0.481822 0.187883
vt 0.457846 0.130000
vt 0.666667 0.500000
vt 0.666667 1.000000
vt 0.625000 1.000000
vt 0.625000 0.500000
vt 0.419706 0.080294
vt 0.370000 0.042154
vt 0.583333 0.500000
vt 0.583333 1.000000
vt 0.541666 1.000000
vt 0.541666 0.500000
vt 0.312117 0.018178
vt 0.250000 0.010000
vt 0.500000 0.500000
vt 0.500000 1.000000
vt 0.458333 1.000000
vt 0.458333 0.500000
vt 0.416666 1.000000
vt 0.416666 0.500000
vt 0.375000 1.000000
vt 0.375000 0.500000
vt 0.080294 0.080294
vt 0.042154 0.130000
vt 0.333333 0.500000
vt 0.333333 1.000000
vt 0.291667 1.000000
vt 0.291667 0.500000
vt 0.018178 0.187883
vt 0.010000 0.250000
vt 0.250000 0.500000
vt 0.250000 1.000000
vt 0.208333 1.000000
vt 0.208333 0.500000
vt 0.018178 0.312117
vt 0.042154 0.370000
vt 0.166666 0.500000
vt 0.166666 1.000000
vt 0.125000 1.000000
vt 0.125000 0.500000
vt 0.080294 0.419706
vt 0.130000 0.457846
vt 0.594815 0.160404
vt 0.576914 0.203622
vt 0.076914 0.203622
vt 0.094815 0.160404
vt 0.083333 0.500000
vt 0.083333 1.000000
vt 0.041666 1.000000
vt 0.041666 0.500000
vt 0.750000 0.490000
vt 0.687883 0.481822
vt 0.623292 0.123292
vt 0.123292 0.123292
vt 0.796378 0.423086
vt 0.750000 0.429192
vt 0.812117 0.481822
vt 0.250000 0.429192
vt 0.296378 0.423086
vt 0.250000 0.490000
vt 0.839596 0.405185
vt 0.870000 0.457846
vt 0.339596 0.405185
vt 0.876708 0.376708
vt 0.919706 0.419706
vt 0.376708 0.376708
vt 0.905185 0.339596
vt 0.957846 0.370000
vt 0.405185 0.339596
vt 0.923086 0.296378
vt 0.981822 0.312117
vt 0.423086 0.296378
vt 0.481822 0.312117
vt 0.929192 0.250000
vt 0.990000 0.250000
vt 0.429192 0.250000
vt 0.490000 0.250000
vt 0.923086 0.203622
vt 0.981822 0.187883
vt 0.423086 0.203622
vt 0.905185 0.160404
vt 0.957846 0.130000
vt 0.405185 0.160404
vt 0.876708 0.123292
vt 0.919706 0.080294
vt 0.376708 0.123292
vt 0.839596 0.094815
vt 0.870000 0.042154
vt 0.339596 0.094815
vt 0.796378 0.076914
vt 0.812117 0.018178
vt 0.296378 0.076914
vt 0.750000 0.070808
vt 0.750000 0.010000
vt 0.250000 0.070808
vt 0.703622 0.076914
vt 0.687883 0.018178
vt 0.203622 0.076914
vt 0.187883 0.018178
vt 0.660404 0.094815
vt 0.630000 0.042154
vt 0.160404 0.094815
vt 0.130000 0.042154
vt 0.580294 0.080294
vt 0.542154 0.130000
vt 0.518178 0.187883
vt 0.570808 0.250000
vt 0.510000 0.250000
vt 0.070808 0.250000
vt 0.576914 0.296378
vt 0.518178 0.312117
vt 0.076914 0.296378
vt 0.594815 0.339596
vt 0.542154 0.370000
vt 0.094815 0.339596
vt 0.623292 0.376708
vt 0.580294 0.419706
vt 0.123292 0.376708
vt 0.660404 0.405185
vt 0.630000 0.457846
vt 0.160404 0.405185
vt 0.703622 0.423086
vt 0.203622 0.423086
vt 0.187883 0.481822
vt -0.000000 1.000000
vt -0.000000 0.500000
s 0
usemtl Material
f 49/1/1 52/2/1 51/3/1 50/4/1
f 51/5/2 54/6/2 124/6/2 121/5/2
f 53/7/3 54/8/3 56/9/3 55/10/3
f 56/11/2 58/12/2 128/12/2 125/11/2
f 57/13/4 58/14/4 60/15/4 59/16/4
f 62/17/5 61/18/5 131/18/5 132/17/5
f 61/18/6 62/17/6 64/19/6 63/20/6
f 64/21/2 66/22/2 136/22/2 133/21/2
f 65/23/7 66/24/7 68/25/7 67/26/7
f 68/27/2 70/28/2 140/28/2 137/27/2
f 69/29/8 70/30/8 72/31/8 71/32/8
f 72/33/2 74/34/2 144/34/2 141/33/2
f 73/35/9 74/36/9 76/37/9 75/38/9
f 78/39/10 77/40/10 99/40/10 100/39/10
f 77/40/11 78/39/11 80/41/11 79/42/11
f 80/43/2 82/44/2 104/44/2 101/43/2
f 81/45/12 82/46/12 84/47/12 83/48/12
f 84/49/2 86/50/2 108/50/2 105/49/2
f 85/51/13 86/52/13 88/53/13 87/54/13
f 88/55/2 90/56/2 112/56/2 109/55/2
f 89/57/14 90/58/14 92/59/14 91/60/14
f 92/61/2 94/62/2 116/62/2 113/61/2
f 33/63/4 35/64/4 36/65/4 34/66/4
f 93/67/15 94/68/15 96/69/15 95/70/15
f 49/71/16 95/72/16 120/72/16 117/71/16
f 31/73/17 33/63/17 34/66/17 32/74/17
f 3/75/16 1/76/16 49/71/16 50/77/16
f 2/78/2 4/79/2 51/5/2 52/80/2
f 5/81/16 3/75/16 50/77/16 53/82/16
f 4/79/2 6/83/2 54/6/2 51/5/2
f 7/84/16 5/81/16 53/82/16 55/85/16
f 6/83/2 8/86/2 56/11/2 54/6/2
f 9/87/16 7/84/16 55/85/16 57/88/16
f 8/86/2 10/89/2 58/12/2 56/11/2
f 11/90/16 9/87/16 57/88/16 59/91/16
f 10/89/2 12/92/2 60/93/2 58/12/2
f 13/94/16 11/90/16 59/91/16 61/95/16
f 12/92/2 14/96/2 62/97/2 60/93/2
f 15/98/16 13/94/16 61/95/16 63/99/16
f 14/96/2 16/100/2 64/21/2 62/97/2
f 17/101/16 15/98/16 63/99/16 65/102/16
f 16/100/2 18/103/2 66/22/2 64/21/2
f 19/104/16 17/101/16 65/102/16 67/105/16
f 18/103/2 20/106/2 68/27/2 66/22/2
f 21/107/16 19/104/16 67/105/16 69/108/16
f 20/106/2 22/109/2 70/28/2 68/27/2
f 23/110/16 21/107/16 69/108/16 71/111/16
f 22/109/2 24/112/2 72/33/2 70/28/2
f 25/113/16 23/110/16 71/111/16 73/114/16
f 24/112/2 26/115/2 74/34/2 72/33/2
f 27/116/16 25/113/16 73/114/16 75/117/16
f 26/115/2 28/118/2 76/119/2 74/34/2
f 29/120/16 27/116/16 75/117/16 77/121/16
f 28/118/2 30/122/2 78/123/2 76/119/2
f 31/73/16 29/120/16 77/121/16 79/124/16
f 30/122/2 32/74/2 80/43/2 78/123/2
f 33/63/16 31/73/16 79/124/16 81/125/16
f 32/74/2 34/66/2 82/44/2 80/43/2
f 35/64/16 33/63/16 81/125/16 83/126/16
f 34/66/2 36/65/2 84/49/2 82/44/2
f 37/127/16 35/64/16 83/126/16 85/128/16
f 36/65/2 38/129/2 86/50/2 84/49/2
f 39/130/16 37/127/16 85/128/16 87/131/16
f 38/129/2 40/132/2 88/55/2 86/50/2
f 41/133/16 39/130/16 87/131/16 89/134/16
f 40/132/2 42/135/2 90/56/2 88/55/2
f 43/136/16 41/133/16 89/134/16 91/137/16
f 42/135/2 44/138/2 92/61/2 90/56/2
f 45/139/16 43/136/16 91/137/16 93/140/16
f 44/138/2 46/141/2 94/62/2 92/61/2
f 47/142/16 45/139/16 93/140/16 95/72/16
f 46/141/2 48/143/2 96/144/2 94/62/2
f 1/76/16 47/142/16 95/72/16 49/71/16
f 48/143/2 2/78/2 52/80/2 96/144/2
f 35/64/18 37/127/18 38/129/18 36/65/18
f 37/127/6 39/130/6 40/132/6 38/129/6
f 39/130/19 41/133/19 42/135/19 40/132/19
f 41/133/7 43/136/7 44/138/7 42/135/7
f 43/136/20 45/139/20 46/141/20 44/138/20
f 45/139/8 47/142/8 48/143/8 46/141/8
f 47/142/5 1/76/5 2/78/5 48/143/5
f 1/76/9 3/75/9 4/79/9 2/78/9
f 3/75/21 5/81/21 6/83/21 4/79/21
f 5/81/11 7/84/11 8/86/11 6/83/11
f 7/84/22 9/87/22 10/89/22 8/86/22
f 9/87/12 11/90/12 12/92/12 10/89/12
f 11/90/23 13/94/23 14/96/23 12/92/23
f 13/94/13 15/98/13 16/100/13 14/96/13
f 15/98/10 17/101/10 18/103/10 16/100/10
f 17/101/14 19/104/14 20/106/14 18/103/14
f 19/104/24 21/107/24 22/109/24 20/106/24
f 21/107/15 23/110/15 24/112/15 22/109/15
f 23/110/25 25/113/25 26/115/25 24/112/25
f 25/113/1 27/116/1 28/118/1 26/115/1
f 27/116/26 29/120/26 30/122/26 28/118/26
f 29/120/3 31/73/3 32/74/3 30/122/3
f 98/38/21 97/37/21 100/39/21 99/40/21
f 77/121/16 75/117/16 98/117/16 99/121/16
f 76/119/2 78/123/2 100/123/2 97/119/2
f 75/38/19 76/37/19 97/37/19 98/38/19
f 102/42/22 101/41/22 104/46/22 103/45/22
f 79/42/20 80/41/20 101/41/20 102/42/20
f 82/46/24 81/45/24 103/45/24 104/46/24
f 81/125/16 79/124/16 102/124/16 103/125/16
f 106/48/23 105/47/23 108/52/23 107/51/23
f 83/48/5 84/47/5 105/47/5 106/48/5
f 86/52/25 85/51/25 107/51/25 108/52/25
f 85/128/16 83/126/16 106/126/16 107/128/16
f 110/54/10 109/53/10 112/58/10 111/57/10
f 87/54/21 88/53/21 109/53/21 110/54/21
f 90/58/26 89/57/26 111/57/26 112/58/26
f 89/134/16 87/131/16 110/131/16 111/134/16
f 114/60/24 113/59/24 116/68/24 115/67/24
f 91/60/22 92/59/22 113/59/22 114/60/22
f 94/68/17 93/67/17 115/67/17 116/68/17
f 93/140/16 91/137/16 114/137/16 115/140/16
f 120/70/25 119/69/25 118/145/25 117/146/25
f 52/2/18 49/1/18 117/1/18 118/2/18
f 96/144/2 52/80/2 118/80/2 119/144/2
f 95/70/23 96/69/23 119/69/23 120/70/23
f 122/4/26 121/3/26 124/8/26 123/7/26
f 50/4/10 51/3/10 121/3/10 122/4/10
f 54/8/19 53/7/19 123/7/19 124/8/19
f 53/82/16 50/77/16 122/77/16 123/82/16
f 126/10/17 125/9/17 128/14/17 127/13/17
f 55/10/24 56/9/24 125/9/24 126/10/24
f 58/14/20 57/13/20 127/13/20 128/14/20
f 57/88/16 55/85/16 126/85/16 127/88/16
f 130/16/18 129/15/18 132/17/18 131/18/18
f 61/95/16 59/91/16 130/91/16 131/95/16
f 60/93/2 62/97/2 132/97/2 129/93/2
f 59/16/25 60/15/25 129/15/25 130/16/25
f 134/20/19 133/19/19 136/24/19 135/23/19
f 63/20/26 64/19/26 133/19/26 134/20/26
f 66/24/21 65/23/21 135/23/21 136/24/21
f 65/102/16 63/99/16 134/99/16 135/102/16
f 138/26/20 137/25/20 140/30/20 139/29/20
f 67/26/17 68/25/17 137/25/17 138/26/17
f 70/30/22 69/29/22 139/29/22 140/30/22
f 69/108/16 67/105/16 138/105/16 139/108/16
f 142/32/5 141/31/5 144/36/5 143/35/5
f 71/32/18 72/31/18 141/31/18 142/32/18
f 74/36/23 73/35/23 143/35/23 144/36/23
f 73/114/16 71/111/16 142/111/16 143/114/16
