# Blender v2.79 (sub 0) OBJ File: ''
# www.blender.org
mtllib Back Ring.mtl
o Mesh_0112
v 1.157281 1.158317 -0.390863
v 0.566636 1.365337 -0.000843
v 0.626010 1.513838 -0.387548
v 0.001020 1.478252 0.002273
v -0.000882 1.638981 -0.384078
v -0.564751 1.366108 0.005048
v -0.627950 1.514693 -0.381004
v -1.044544 1.045990 0.007060
v -1.159722 1.159901 -0.378780
v -1.365321 0.566631 0.007994
v -1.515240 0.628615 -0.377740
v -1.478231 0.001007 0.007716
v -1.640386 0.001711 -0.378056
v -1.366091 -0.564775 0.006254
v -1.516106 -0.625351 -0.379668
v -1.045988 -1.044566 0.003845
v -1.161311 -1.157128 -0.382344
v -0.566635 -1.365341 0.000851
v -0.630040 -1.512650 -0.385660
v -0.001021 -1.478244 -0.002273
v -0.003148 -1.637794 -0.389129
v 0.564749 -1.366110 -0.005048
v 0.623920 -1.513504 -0.392203
v 1.044543 -1.045993 -0.007059
v 1.155682 -1.158712 -0.394423
v 1.365319 -0.566633 -0.007993
v 1.511200 -0.627417 -0.395463
v 1.478232 -0.001012 -0.007708
v 1.636356 -0.000523 -0.395151
v 1.366102 0.564771 -0.006248
v 1.512066 0.626549 -0.393535
v 1.045986 1.044563 -0.003845
v 0.004253 2.024151 0.549857
v 0.630041 1.512645 0.385669
v 0.779067 1.869484 0.545586
v 1.161321 1.157124 0.382351
v 1.435710 1.430074 0.541484
v 1.516106 0.625356 0.379679
v 1.874213 0.772816 0.538179
v 1.640384 -0.001713 0.378057
v 2.027826 -0.002224 0.536185
v 1.515241 -0.628610 0.377751
v 1.873142 -0.777054 0.535791
v 1.159720 -1.159903 0.378780
v 1.433731 -1.433706 0.537076
v 0.627948 -1.514695 0.381004
v 0.776480 -1.872227 0.539822
v 0.000883 -1.638985 0.384088
v 0.001455 -2.025839 0.543624
v -0.626002 -1.513841 0.387544
v -0.773365 -1.871164 0.547908
v -1.157283 -1.158320 0.390863
v -1.430008 -1.431754 0.552011
v -1.512068 -0.626552 0.393534
v -1.868514 -0.774495 0.555306
v -1.636348 0.000520 0.395147
v -2.022125 0.000535 0.557310
v -1.511202 0.627424 0.395464
v -1.867443 0.775365 0.557693
v -1.155681 1.158708 0.394433
v -1.428030 1.432027 0.556420
v -0.623912 1.513502 0.392199
v -0.770782 1.870538 0.553663
v 0.003146 1.637791 0.389128
v -0.919314 2.228070 0.394846
v -1.702051 1.705829 0.398129
v -2.225356 0.923811 0.399645
v -2.409566 0.001055 0.399183
v -2.226630 -0.921954 0.396808
v -1.704406 -1.704693 0.392882
v -0.922391 -2.228002 0.387990
v 0.000348 -2.412200 0.382895
v 0.923352 -2.229265 0.378367
v 1.706080 -1.707024 0.375087
v 2.229386 -0.924996 0.373572
v 2.413596 -0.002240 0.374034
v 2.230660 0.920769 0.376409
v 1.708436 1.703508 0.380335
v 0.926430 2.226808 0.385223
v 0.003681 2.411014 0.390322
v -0.001457 2.025837 -0.543624
v -0.776482 1.872224 -0.539822
v -1.433733 1.433714 -0.537073
v -1.873143 0.777051 -0.535792
v -2.027825 0.002220 -0.536175
v -1.874214 -0.772809 -0.538179
v -1.435709 -1.430068 -0.541472
v -0.779065 -1.869479 -0.545577
v -0.004245 -2.024153 -0.549860
v 0.770780 -1.870541 -0.553663
v 1.428031 -1.432020 -0.556409
v 1.867441 -0.775367 -0.557693
v 2.022126 -0.000538 -0.557300
v 1.868513 0.774502 -0.555305
v 1.430010 1.431760 -0.552000
v 0.773363 1.871171 -0.547907
v -2.375276 0.985786 0.013910
v -1.817219 1.819739 0.012285
v -0.982513 2.376654 0.008793
v 0.001776 2.571745 0.003959
v 0.985794 2.375309 -0.001479
v 1.819731 1.817262 -0.006683
v 2.376637 0.982546 -0.010872
v 2.571720 -0.001751 -0.013410
v 2.375277 -0.985791 -0.013901
v 1.817220 -1.819743 -0.012276
v 0.982514 -2.376659 -0.008784
v -0.001778 -2.571748 -0.003960
v -0.985796 -2.375311 0.001479
v -1.819732 -1.817254 0.006684
v -2.376635 -0.982540 0.010882
v -2.571709 0.001757 0.013417
v -2.229385 0.925002 -0.373562
v -2.413595 0.002246 -0.374023
v -2.230658 -0.920763 -0.376399
v -1.708437 -1.703500 -0.380334
v -0.926419 -2.226811 -0.385217
v -0.003680 -2.411008 -0.390312
v 0.919312 -2.228063 -0.394845
v 1.702052 -1.705833 -0.398120
v 2.225355 -0.923804 -0.399644
v 2.409565 -0.001048 -0.399182
v 2.226631 0.921960 -0.396798
v 1.704408 1.704699 -0.392871
v 0.922389 2.228000 -0.387990
v -0.000350 2.412207 -0.382893
v -0.923352 2.229261 -0.378358
v -1.706082 1.707022 -0.375088
v 1.514566 -0.832786 0.153323
v 1.515714 0.830220 0.155880
v -1.514012 -0.830719 0.169118
v -1.512864 0.832287 0.171675
v 1.514023 0.830716 -0.169112
v 1.512875 -0.832280 -0.171667
v -1.514565 0.832782 -0.153314
v -1.515713 -0.830213 -0.155870
v -0.000001 0.000004 0.000001
v -0.001054 -1.524996 -0.002346
v 1.523930 -1.526035 -0.010302
v 0.001052 1.524994 0.002345
v -1.523923 1.526043 0.010300
v 1.526036 1.523956 -0.005610
v 1.524983 -0.001044 -0.007956
v -1.526029 -1.523959 0.005607
v -1.524976 0.001042 0.007953
vt 0.000000 0.000000
vt 0.000000 0.000000
vt 0.000000 0.000000
vt 0.000000 0.000000
vt 0.000000 0.000000
vt 0.000000 0.000000
vt 0.000000 0.000000
vt 0.000000 0.000000
vt 0.000000 0.000000
vt 0.000000 0.000000
vt 0.000000 0.000000
vt 0.000000 0.000000
vt 0.000000 0.000000
vt 0.000000 0.000000
vt 0.000000 0.000000
vt 0.000000 0.000000
vt 0.000000 0.000000
vt 0.000000 0.000000
vt 0.000000 0.000000
vt 0.000000 0.000000
vt 0.000000 0.000000
vt 0.000000 0.000000
vt 0.000000 0.000000
vt 0.000000 0.000000
vt 0.000000 0.000000
vt 0.000000 0.000000
vt 0.000000 0.000000
vt 0.000000 0.000000
vt 0.000000 0.000000
vt 0.000000 0.000000
vt 0.000000 0.000000
vt 0.000000 0.000000
vt 0.000000 0.000000
vt 0.000000 0.000000
vt 0.000000 0.000000
vt 0.000000 0.000000
vt 0.000000 0.000000
vt 0.000000 0.000000
vt 0.000000 0.000000
vt 0.000000 0.000000
vt 0.000000 0.000000
vt 0.000000 0.000000
vt 0.000000 0.000000
vt 0.000000 0.000000
vt 0.000000 0.000000
vt 0.000000 0.000000
vt 0.000000 0.000000
vt 0.000000 0.000000
vt 0.000000 0.000000
vt 0.000000 0.000000
vt 0.000000 0.000000
vt 0.000000 0.000000
vt 0.000000 0.000000
vt 0.000000 0.000000
vt 0.000000 0.000000
vt 0.000000 0.000000
vt 0.000000 0.000000
vt 0.000000 0.000000
vt 0.000000 0.000000
vt 0.000000 0.000000
vt 0.000000 0.000000
vt 0.000000 0.000000
vt 0.000000 0.000000
vt 0.000000 0.000000
vt 0.000000 0.000000
vt 0.000000 0.000000
vt 0.000000 0.000000
vt 0.000000 0.000000
vt 0.000000 0.000000
vt 0.000000 0.000000
vt 0.000000 0.000000
vt 0.000000 0.000000
vt 0.000000 0.000000
vt 0.000000 0.000000
vt 0.000000 0.000000
vt 0.000000 0.000000
vt 0.000000 0.000000
vt 0.000000 0.000000
vt 0.000000 0.000000
vt 0.000000 0.000000
vt 0.000000 0.000000
vt 0.000000 0.000000
vt 0.000000 0.000000
vt 0.000000 0.000000
vt 0.000000 0.000000
vt 0.000000 0.000000
vt 0.000000 0.000000
vt 0.000000 0.000000
vt 0.000000 0.000000
vt 0.000000 0.000000
vt 0.000000 0.000000
vt 0.000000 0.000000
vt 0.000000 0.000000
vt 0.000000 0.000000
vt 0.000000 0.000000
vt 0.000000 0.000000
vt 0.000000 0.000000
vt 0.000000 0.000000
vt 0.000000 0.000000
vt 0.000000 0.000000
vt 0.000000 0.000000
vt 0.000000 0.000000
vt 0.000000 0.000000
vt 0.000000 0.000000
vt 0.000000 0.000000
vt 0.000000 0.000000
vt 0.000000 0.000000
vt 0.000000 0.000000
vt 0.000000 0.000000
vt 0.000000 0.000000
vt 0.000000 0.000000
vt 0.000000 0.000000
vt 0.000000 0.000000
vt 0.000000 0.000000
vt 0.000000 0.000000
vt 0.000000 0.000000
vt 0.000000 0.000000
vt 0.000000 0.000000
vt 0.000000 0.000000
vt 0.000000 0.000000
vt 0.000000 0.000000
vt 0.000000 0.000000
vt 0.000000 0.000000
vt 0.000000 0.000000
vt 0.000000 0.000000
vt 0.000000 0.000000
vt 0.000000 0.000000
vt 0.000000 0.000000
vt 1.000000 -0.996100
vt 1.000000 -0.496100
vt 0.000000 -0.996100
vt 0.000000 -0.496100
vt 0.000000 -0.496100
vt 0.000000 -0.996100
vt 1.000000 -0.496100
vt 1.000000 -0.996100
vt 0.500000 -0.937500
vt 0.011700 3.125000
vt 0.988300 4.941400
vt 0.011700 3.125000
vt 0.988300 4.941400
vt 0.988300 4.941400
vt 0.011700 3.125000
vt 0.988300 4.941400
vt 0.011700 3.125000
vn -0.5172 -0.7694 -0.3749
vn -0.3562 -0.8527 -0.3821
vn -0.1833 -0.9080 -0.3768
vn -0.3561 -0.8527 -0.3822
vn -0.0026 -0.9233 -0.3841
vn 0.1782 -0.9082 -0.3787
vn 0.3510 -0.8532 -0.3858
vn -0.0027 -0.9233 -0.3841
vn 0.5122 -0.7701 -0.3803
vn 0.6508 -0.6531 -0.3871
vn 0.7680 -0.5147 -0.3812
vn 0.8513 -0.3535 -0.3877
vn 0.9219 -0.0000 -0.3875
vn 0.8518 0.3536 -0.3866
vn 0.7687 0.5148 -0.3796
vn 0.6518 0.6534 -0.3851
vn 0.5133 0.7706 -0.3779
vn 0.3521 0.8539 -0.3832
vn -0.0014 0.9245 -0.3813
vn -0.3550 0.8544 -0.3795
vn -0.6548 0.6543 -0.3783
vn -0.8553 0.3547 -0.3777
vn -0.9259 0.0012 -0.3779
vn -0.8558 -0.3524 -0.3788
vn -0.7726 -0.5136 -0.3731
vn -0.0714 -0.3829 0.9210
vn -0.1542 -0.3497 0.9241
vn -0.1419 -0.3549 0.9241
vn -0.2660 -0.2718 0.9249
vn -0.3488 -0.1476 0.9255
vn -0.3779 -0.0012 0.9259
vn -0.3486 0.1453 0.9259
vn -0.2656 0.2694 0.9257
vn -0.1414 0.3522 0.9252
vn 0.0051 0.3813 0.9245
vn 0.1515 0.3520 0.9236
vn 0.2756 0.2690 0.9229
vn 0.3585 0.1448 0.9222
vn 0.3875 -0.0017 0.9219
vn 0.3583 -0.1481 0.9218
vn 0.2752 -0.2722 0.9220
vn 0.1510 -0.3551 0.9226
vn 0.0804 -0.3831 0.9202
vn 0.0804 -0.3830 0.9202
vn -0.0708 0.3802 0.9222
vn -0.1547 0.3467 0.9251
vn 0.0046 -0.3841 0.9233
vn 0.3582 -0.1481 0.9218
vn 0.0051 0.3812 0.9245
vn 0.0161 0.3812 0.9243
vn 0.0708 -0.3802 -0.9222
vn 0.1537 -0.3471 -0.9251
vn 0.1414 -0.3522 -0.9252
vn 0.2656 -0.2694 -0.9257
vn 0.3486 -0.1453 -0.9259
vn 0.3779 0.0012 -0.9259
vn 0.3488 0.1476 -0.9255
vn 0.2660 0.2718 -0.9249
vn 0.1419 0.3549 -0.9241
vn -0.0046 0.3841 -0.9233
vn -0.1510 0.3551 -0.9226
vn -0.2752 0.2722 -0.9220
vn -0.3583 0.1481 -0.9218
vn -0.3875 0.0017 -0.9219
vn -0.3585 -0.1448 -0.9223
vn -0.2756 -0.2690 -0.9229
vn -0.1515 -0.3520 -0.9236
vn -0.0810 -0.3801 -0.9214
vn -0.7680 0.5147 0.3812
vn -0.6323 0.6712 0.3869
vn -0.6508 0.6531 0.3871
vn -0.3510 0.8532 0.3858
vn 0.0026 0.9233 0.3841
vn 0.3561 0.8527 0.3821
vn 0.6557 0.6522 0.3803
vn 0.8558 0.3524 0.3788
vn 0.9259 -0.0012 0.3779
vn 0.8553 -0.3547 0.3777
vn 0.6548 -0.6543 0.3783
vn 0.3550 -0.8544 0.3795
vn 0.0014 -0.9245 0.3813
vn -0.3521 -0.8539 0.3832
vn -0.6517 -0.6534 0.3851
vn -0.8518 -0.3536 0.3866
vn -0.9219 0.0000 0.3875
vn -0.8513 0.3535 0.3877
vn -0.8620 0.3268 0.3875
vn 0.7719 -0.5158 0.3716
vn 0.6252 -0.6828 0.3780
vn 0.0014 -0.9245 0.3812
vn 0.8721 -0.3117 0.3772
vn -0.3863 0.0776 -0.9191
vn -0.3875 -0.0094 -0.9218
vn -0.3585 -0.1448 -0.9222
vn -0.0051 -0.3813 -0.9244
vn -0.3527 0.1615 -0.9217
vn -0.3826 -0.8413 -0.3818
vn -0.3561 -0.8527 -0.3821
vn -0.6557 -0.6522 -0.3803
vn -0.9259 0.0012 -0.3778
vn -0.0014 0.9245 -0.3812
vn 0.6517 0.6534 -0.3851
vn 0.3510 -0.8532 -0.3859
vn 0.0052 -0.0015 1.0000
vn -0.0052 0.0015 -1.0000
usemtl Tex_0026_0_png
s 1
f 1/1/1 2/2/1 3/3/2
f 2/2/3 4/4/3 3/3/4
f 3/3/4 4/4/3 5/5/5
f 4/4/6 6/6/7 5/5/8
f 5/5/8 6/6/7 7/7/7
f 6/6/7 8/8/9 7/7/7
f 7/7/7 8/8/9 9/9/10
f 8/8/11 10/10/12 9/9/10
f 9/9/10 10/10/12 11/11/12
f 10/10/12 12/12/13 11/11/12
f 11/11/12 12/12/13 13/13/13
f 12/12/13 14/14/14 13/13/13
f 13/13/13 14/14/14 15/15/14
f 14/14/14 16/16/15 15/15/14
f 15/15/14 16/16/15 17/17/16
f 16/16/17 18/18/18 17/17/16
f 17/17/16 18/18/18 19/19/18
f 18/18/18 20/20/19 19/19/18
f 19/19/18 20/20/19 21/21/19
f 20/20/19 22/22/20 21/21/19
f 21/21/19 22/22/20 23/23/20
f 22/22/20 24/24/21 23/23/20
f 23/23/20 24/24/21 25/25/21
f 24/24/21 26/26/22 25/25/21
f 25/25/21 26/26/22 27/27/22
f 26/26/22 28/28/23 27/27/22
f 27/27/22 28/28/23 29/29/23
f 28/28/23 30/30/24 29/29/23
f 29/29/23 30/30/24 31/31/24
f 30/30/24 32/32/25 31/31/24
f 31/31/24 32/32/25 1/1/25
f 32/32/1 2/2/1 1/1/1
f 33/33/26 34/34/27 35/35/28
f 34/34/27 36/36/29 35/35/28
f 35/35/28 36/36/29 37/37/29
f 36/36/29 38/38/30 37/37/29
f 37/37/29 38/38/30 39/39/30
f 38/38/30 40/40/31 39/39/30
f 39/39/30 40/40/31 41/41/31
f 40/40/31 42/42/32 41/41/31
f 41/41/31 42/42/32 43/43/32
f 42/42/32 44/44/33 43/43/32
f 43/43/32 44/44/33 45/45/33
f 44/44/33 46/46/34 45/45/33
f 45/45/33 46/46/34 47/47/34
f 46/46/34 48/48/35 47/47/34
f 47/47/34 48/48/35 49/49/35
f 48/48/35 50/50/36 49/49/35
f 49/49/35 50/50/36 51/51/36
f 50/50/36 52/52/37 51/51/36
f 51/51/36 52/52/37 53/53/37
f 52/52/37 54/54/38 53/53/37
f 53/53/37 54/54/38 55/55/38
f 54/54/38 56/56/39 55/55/38
f 55/55/38 56/56/39 57/57/39
f 56/56/39 58/58/40 57/57/39
f 57/57/39 58/58/40 59/59/40
f 58/58/40 60/60/41 59/59/40
f 59/59/40 60/60/41 61/61/41
f 60/60/41 62/62/42 61/61/41
f 61/61/41 62/62/42 63/63/42
f 62/62/42 64/64/43 63/63/42
f 63/63/42 64/64/43 33/33/44
f 64/64/26 34/34/26 33/33/26
f 33/33/45 65/65/46 63/63/34
f 65/65/46 66/66/33 63/63/34
f 63/63/34 66/66/33 61/61/33
f 66/66/33 67/67/32 61/61/33
f 61/61/33 67/67/32 59/59/32
f 67/67/32 68/68/31 59/59/32
f 59/59/32 68/68/31 57/57/31
f 68/68/31 69/69/30 57/57/31
f 57/57/31 69/69/30 55/55/30
f 69/69/30 70/70/29 55/55/30
f 55/55/30 70/70/29 53/53/29
f 70/70/29 71/71/28 53/53/29
f 53/53/29 71/71/28 51/51/28
f 71/71/28 72/72/47 51/51/28
f 51/51/28 72/72/47 49/49/47
f 72/72/47 73/73/42 49/49/47
f 49/49/47 73/73/42 47/47/42
f 73/73/42 74/74/41 47/47/42
f 47/47/42 74/74/41 45/45/41
f 74/74/41 75/75/40 45/45/41
f 45/45/41 75/75/40 43/43/48
f 75/75/40 76/76/39 43/43/48
f 43/43/48 76/76/39 41/41/39
f 76/76/39 77/77/38 41/41/39
f 41/41/39 77/77/38 39/39/38
f 77/77/38 78/78/37 39/39/38
f 39/39/38 78/78/37 37/37/37
f 78/78/37 79/79/36 37/37/37
f 37/37/37 79/79/36 35/35/36
f 79/79/36 80/80/49 35/35/36
f 35/35/36 80/80/49 33/33/50
f 80/80/49 65/65/45 33/33/50
f 81/81/51 7/7/52 82/82/53
f 7/7/52 9/9/54 82/82/53
f 82/82/53 9/9/54 83/83/54
f 9/9/54 11/11/55 83/83/54
f 83/83/54 11/11/55 84/84/55
f 11/11/55 13/13/56 84/84/55
f 84/84/55 13/13/56 85/85/56
f 13/13/56 15/15/57 85/85/56
f 85/85/56 15/15/57 86/86/57
f 15/15/57 17/17/58 86/86/57
f 86/86/57 17/17/58 87/87/58
f 17/17/58 19/19/59 87/87/58
f 87/87/58 19/19/59 88/88/59
f 19/19/59 21/21/60 88/88/59
f 88/88/59 21/21/60 89/89/60
f 21/21/60 23/23/61 89/89/60
f 89/89/60 23/23/61 90/90/61
f 23/23/61 25/25/62 90/90/61
f 90/90/61 25/25/62 91/91/62
f 25/25/62 27/27/63 91/91/62
f 91/91/62 27/27/63 92/92/63
f 27/27/63 29/29/64 92/92/63
f 92/92/63 29/29/64 93/93/64
f 29/29/64 31/31/65 93/93/64
f 93/93/64 31/31/65 94/94/65
f 31/31/65 1/1/66 94/94/65
f 94/94/65 1/1/66 95/95/66
f 1/1/66 3/3/67 95/95/66
f 95/95/66 3/3/67 96/96/67
f 3/3/67 5/5/68 96/96/67
f 96/96/67 5/5/68 81/81/68
f 5/5/51 7/7/51 81/81/51
f 97/97/69 66/66/70 98/98/71
f 66/66/70 65/65/72 98/98/71
f 98/98/71 65/65/72 99/99/72
f 65/65/72 80/80/73 99/99/72
f 99/99/72 80/80/73 100/100/73
f 80/80/73 79/79/74 100/100/73
f 100/100/73 79/79/74 101/101/74
f 79/79/74 78/78/75 101/101/74
f 101/101/74 78/78/75 102/102/75
f 78/78/75 77/77/76 102/102/75
f 102/102/75 77/77/76 103/103/76
f 77/77/76 76/76/77 103/103/76
f 103/103/76 76/76/77 104/104/77
f 76/76/77 75/75/78 104/104/77
f 104/104/77 75/75/78 105/105/78
f 75/75/78 74/74/79 105/105/78
f 105/105/78 74/74/79 106/106/79
f 74/74/79 73/73/80 106/106/79
f 106/106/79 73/73/80 107/107/80
f 73/73/80 72/72/81 107/107/80
f 107/107/80 72/72/81 108/108/81
f 72/72/81 71/71/82 108/108/81
f 108/108/81 71/71/82 109/109/82
f 71/71/82 70/70/83 109/109/82
f 109/109/82 70/70/83 110/110/83
f 70/70/83 69/69/84 110/110/83
f 110/110/83 69/69/84 111/111/84
f 69/69/84 68/68/85 111/111/84
f 111/111/84 68/68/85 112/112/85
f 68/68/85 67/67/86 112/112/85
f 112/112/85 67/67/86 97/97/87
f 67/67/86 66/66/69 97/97/87
f 58/58/88 8/8/89 60/60/79
f 8/8/89 6/6/80 60/60/79
f 60/60/79 6/6/80 62/62/80
f 6/6/80 4/4/90 62/62/80
f 62/62/80 4/4/90 64/64/90
f 4/4/90 2/2/82 64/64/90
f 64/64/90 2/2/82 34/34/82
f 2/2/82 32/32/83 34/34/82
f 34/34/82 32/32/83 36/36/83
f 32/32/83 30/30/84 36/36/83
f 36/36/83 30/30/84 38/38/84
f 30/30/84 28/28/85 38/38/84
f 38/38/84 28/28/85 40/40/85
f 28/28/85 26/26/86 40/40/85
f 40/40/85 26/26/86 42/42/86
f 26/26/86 24/24/71 42/42/86
f 42/42/86 24/24/71 44/44/71
f 24/24/71 22/22/72 44/44/71
f 44/44/71 22/22/72 46/46/72
f 22/22/72 20/20/73 46/46/72
f 46/46/72 20/20/73 48/48/73
f 20/20/73 18/18/74 48/48/73
f 48/48/73 18/18/74 50/50/74
f 18/18/74 16/16/75 50/50/74
f 50/50/74 16/16/75 52/52/75
f 16/16/75 14/14/76 52/52/75
f 52/52/75 14/14/76 54/54/76
f 14/14/76 12/12/77 54/54/76
f 54/54/76 12/12/77 56/56/77
f 12/12/77 10/10/78 56/56/77
f 56/56/77 10/10/78 58/58/91
f 10/10/78 8/8/88 58/58/91
f 113/113/92 85/85/93 114/114/64
f 85/85/93 86/86/94 114/114/64
f 114/114/64 86/86/94 115/115/94
f 86/86/94 87/87/66 115/115/94
f 115/115/94 87/87/66 116/116/66
f 87/87/66 88/88/67 116/116/66
f 116/116/66 88/88/67 117/117/67
f 88/88/67 89/89/95 117/117/67
f 117/117/67 89/89/95 118/118/95
f 89/89/95 90/90/53 118/118/95
f 118/118/95 90/90/53 119/119/53
f 90/90/53 91/91/54 119/119/53
f 119/119/53 91/91/54 120/120/54
f 91/91/54 92/92/55 120/120/54
f 120/120/54 92/92/55 121/121/55
f 92/92/55 93/93/56 121/121/55
f 121/121/55 93/93/56 122/122/56
f 93/93/56 94/94/57 122/122/56
f 122/122/56 94/94/57 123/123/57
f 94/94/57 95/95/58 123/123/57
f 123/123/57 95/95/58 124/124/58
f 95/95/58 96/96/59 124/124/58
f 124/124/58 96/96/59 125/125/59
f 96/96/59 81/81/60 125/125/59
f 125/125/59 81/81/60 126/126/60
f 81/81/60 82/82/61 126/126/60
f 126/126/60 82/82/61 127/127/61
f 82/82/61 83/83/62 127/127/61
f 127/127/61 83/83/62 128/128/62
f 83/83/62 84/84/63 128/128/62
f 128/128/62 84/84/63 113/113/96
f 84/84/63 85/85/92 113/113/96
f 118/118/3 109/109/97 117/117/98
f 109/109/97 110/110/99 117/117/98
f 117/117/98 110/110/99 116/116/99
f 110/110/99 111/111/24 116/116/99
f 116/116/99 111/111/24 115/115/24
f 111/111/24 112/112/100 115/115/24
f 115/115/24 112/112/100 114/114/100
f 112/112/100 97/97/22 114/114/100
f 114/114/100 97/97/22 113/113/22
f 97/97/22 98/98/21 113/113/22
f 113/113/22 98/98/21 128/128/21
f 98/98/21 99/99/20 128/128/21
f 128/128/21 99/99/20 127/127/20
f 99/99/20 100/100/101 127/127/20
f 127/127/20 100/100/101 126/126/101
f 100/100/101 101/101/18 126/126/101
f 126/126/101 101/101/18 125/125/18
f 101/101/18 102/102/102 125/125/18
f 125/125/18 102/102/102 124/124/102
f 102/102/102 103/103/14 124/124/102
f 124/124/102 103/103/14 123/123/14
f 103/103/14 104/104/13 123/123/14
f 123/123/14 104/104/13 122/122/13
f 104/104/13 105/105/12 122/122/13
f 122/122/13 105/105/12 121/121/12
f 105/105/12 106/106/10 121/121/12
f 121/121/12 106/106/10 120/120/10
f 106/106/10 107/107/103 120/120/10
f 120/120/10 107/107/103 119/119/103
f 107/107/103 108/108/6 119/119/103
f 119/119/103 108/108/6 118/118/6
f 108/108/3 109/109/3 118/118/3
usemtl Tex_0028_0_png
f 129/129/104 130/130/104 131/131/104
f 130/130/104 132/132/104 131/131/104
f 133/133/105 134/134/105 135/135/105
f 134/134/105 136/136/105 135/135/105
usemtl Tex_0027_0_png
f 137/137/104 138/138/104 139/139/104
f 137/137/104 140/140/104 141/141/104
f 140/140/104 137/137/104 142/142/104
f 142/142/104 137/137/104 143/143/104
f 137/137/104 139/139/104 143/143/104
f 138/138/104 137/137/104 144/144/104
f 144/144/104 137/137/104 145/145/104
f 137/137/104 141/141/104 145/145/104
