# Blender v2.79 (sub 0) OBJ File: ''
# www.blender.org
mtllib Goal Ring.mtl
o Mesh_0148.002
v -1.155652 1.156462 0.401048
v -0.566680 1.365284 0.009472
v -0.624404 1.512028 0.397091
v -0.001088 1.478242 0.004454
v 0.002455 1.637221 0.391527
v 0.564677 1.366152 -0.001231
v 0.629503 1.512983 0.385224
v 1.044466 1.046074 -0.006742
v 1.161275 1.158226 0.379119
v 1.365246 0.566745 -0.011218
v 1.516807 0.626971 0.374158
v 1.478187 0.001127 -0.013988
v 1.641979 0.000083 0.371083
v 1.366077 -0.564658 -0.014632
v 1.517728 -0.626995 0.370377
v 1.045999 -1.044478 -0.013040
v 1.162976 -1.158788 0.372133
v 0.566683 -1.365286 -0.009471
v 0.631727 -1.514355 0.376091
v 0.001082 -1.478243 -0.004457
v 0.004859 -1.639546 0.381652
v -0.564675 -1.366152 0.001240
v -0.622183 -1.515306 0.387968
v -1.044462 -1.046076 0.006743
v -1.153951 -1.160552 0.394063
v -1.365254 -0.566735 0.011223
v -1.509486 -0.629295 0.399033
v -1.478185 -0.001127 0.013998
v -1.634655 -0.002407 0.402098
v -1.366083 0.564656 0.014629
v -1.510407 0.624661 0.402815
v -1.045998 1.044478 0.013050
v -0.006667 2.026639 -0.540622
v -0.631723 1.514353 -0.376091
v -0.781449 1.871899 -0.533750
v -1.162972 1.158786 -0.372133
v -1.438055 1.432440 -0.528850
v -1.517724 0.626993 -0.370377
v -1.876519 0.775150 -0.526684
v -1.641975 -0.000084 -0.371083
v -2.030088 0.000103 -0.527561
v -1.516803 -0.626973 -0.374158
v -1.875383 -0.774713 -0.531347
v -1.161271 -1.158228 -0.379119
v -1.435952 -1.431329 -0.537486
v -0.629509 -1.512984 -0.385226
v -0.778705 -1.869797 -0.545023
v -0.002460 -1.637223 -0.391529
v -0.003693 -2.023345 -0.552835
v 0.624408 -1.512030 -0.397090
v 0.771099 -1.868614 -0.559702
v 1.155656 -1.156464 -0.401049
v 1.427702 -1.429153 -0.564592
v 1.510409 -0.624661 -0.402807
v 1.866168 -0.771864 -0.566768
v 1.634660 0.002415 -0.402101
v 2.019738 0.003192 -0.565893
v 1.509488 0.629295 -0.399024
v 1.865031 0.778001 -0.562096
v 1.153956 1.160560 -0.394064
v 1.425600 1.434625 -0.555959
v 0.622184 1.515306 -0.387959
v 0.768351 1.873085 -0.548418
v -0.004865 1.639545 -0.381655
v 0.917544 2.229889 -0.388609
v 1.700282 1.707725 -0.397592
v 2.223599 0.925743 -0.404900
v 2.407841 0.003005 -0.409418
v 2.224954 -0.920020 -0.410465
v 1.702786 -1.702796 -0.407876
v 0.920816 -2.226160 -0.402046
v -0.001891 -2.410438 -0.393866
v -0.924869 -2.227567 -0.384576
v -1.707596 -1.705394 -0.375592
v -2.230923 -0.923411 -0.368287
v -2.415166 -0.000673 -0.363769
v -2.232279 0.922343 -0.362720
v -1.710101 1.705119 -0.365306
v -0.928141 2.228482 -0.371139
v -0.005434 2.412761 -0.379319
v 0.003687 2.023342 0.552832
v 0.778706 1.869797 0.545033
v 1.435956 1.431327 0.537486
v 1.875375 0.774714 0.531354
v 2.030082 -0.000105 0.527558
v 1.876513 -0.775151 0.526682
v 1.438059 -1.432442 0.528851
v 0.781444 -1.871900 0.533747
v 0.006661 -2.026631 0.540618
v -0.768347 -1.873087 0.548418
v -1.425595 -1.434617 0.555956
v -1.865027 -0.778003 0.562096
v -2.019733 -0.003184 0.565890
v -1.866164 0.771862 0.566768
v -1.427698 1.429151 0.564591
v -0.771095 1.868612 0.559702
v 2.375160 0.985970 -0.019524
v 1.817090 1.819878 -0.011730
v 0.982380 2.376729 -0.002153
v -0.001892 2.571739 0.007755
v -0.985865 2.375226 0.016479
v -1.819755 1.817103 0.022692
v -2.376601 0.982346 0.025457
v -2.571639 -0.001961 0.024344
v -2.375156 -0.985972 0.019523
v -1.817086 -1.819880 0.011730
v -0.982376 -2.376722 0.002151
v 0.001886 -2.571741 -0.007758
v 0.985869 -2.375229 -0.016480
v 1.819750 -1.817104 -0.022695
v 2.376606 -0.982348 -0.025458
v 2.571633 0.001959 -0.024346
v 2.230918 0.923410 0.368284
v 2.415160 0.000671 0.363766
v 2.232274 -0.922345 0.362717
v 1.710105 -1.705121 0.365306
v 0.928135 -2.228484 0.371136
v 0.005426 -2.412761 0.379324
v -0.917549 -2.229892 0.388606
v -1.700277 -1.707717 0.397589
v -2.223604 -0.925736 0.404895
v -2.407837 -0.003007 0.409417
v -2.224960 0.920018 0.410461
v -1.702782 1.702795 0.407876
v -0.920821 2.226158 0.402042
v 0.001886 2.410436 0.393863
v 0.924863 2.227566 0.384573
v 1.707600 1.705392 0.375592
v -1.513318 0.829857 0.179334
v -1.512095 -0.833143 0.174312
v 1.515175 0.832165 0.150662
v 1.516395 -0.830833 0.145651
v -1.515171 -0.832167 -0.150663
v -1.516391 0.830831 -0.145651
v 1.513322 -0.829859 -0.179333
v 1.512099 0.833142 -0.174313
v -0.000004 0.000005 0.000003
v 0.001116 -1.524995 -0.004598
v -1.523808 -1.526157 0.009837
v -0.001122 1.524994 0.004595
v 1.523811 1.526155 -0.009837
v -1.526046 1.523834 0.019030
v -1.524928 -0.001165 0.014439
v 1.526050 -1.523826 -0.019032
v 1.524930 0.001165 -0.014430
vt 0.000000 0.000000
vt 0.000000 0.000000
vt 0.000000 0.000000
vt 0.000000 0.000000
vt 0.000000 0.000000
vt 0.000000 0.000000
vt 0.000000 0.000000
vt 0.000000 0.000000
vt 0.000000 0.000000
vt 0.000000 0.000000
vt 0.000000 0.000000
vt 0.000000 0.000000
vt 0.000000 0.000000
vt 0.000000 0.000000
vt 0.000000 0.000000
vt 0.000000 0.000000
vt 0.000000 0.000000
vt 0.000000 0.000000
vt 0.000000 0.000000
vt 0.000000 0.000000
vt 0.000000 0.000000
vt 0.000000 0.000000
vt 0.000000 0.000000
vt 0.000000 0.000000
vt 0.000000 0.000000
vt 0.000000 0.000000
vt 0.000000 0.000000
vt 0.000000 0.000000
vt 0.000000 0.000000
vt 0.000000 0.000000
vt 0.000000 0.000000
vt 0.000000 0.000000
vt 0.000000 0.000000
vt 0.000000 0.000000
vt 0.000000 0.000000
vt 0.000000 0.000000
vt 0.000000 0.000000
vt 0.000000 0.000000
vt 0.000000 0.000000
vt 0.000000 0.000000
vt 0.000000 0.000000
vt 0.000000 0.000000
vt 0.000000 0.000000
vt 0.000000 0.000000
vt 0.000000 0.000000
vt 0.000000 0.000000
vt 0.000000 0.000000
vt 0.000000 0.000000
vt 0.000000 0.000000
vt 0.000000 0.000000
vt 0.000000 0.000000
vt 0.000000 0.000000
vt 0.000000 0.000000
vt 0.000000 0.000000
vt 0.000000 0.000000
vt 0.000000 0.000000
vt 0.000000 0.000000
vt 0.000000 0.000000
vt 0.000000 0.000000
vt 0.000000 0.000000
vt 0.000000 0.000000
vt 0.000000 0.000000
vt 0.000000 0.000000
vt 0.000000 0.000000
vt 0.000000 0.000000
vt 0.000000 0.000000
vt 0.000000 0.000000
vt 0.000000 0.000000
vt 0.000000 0.000000
vt 0.000000 0.000000
vt 0.000000 0.000000
vt 0.000000 0.000000
vt 0.000000 0.000000
vt 0.000000 0.000000
vt 0.000000 0.000000
vt 0.000000 0.000000
vt 0.000000 0.000000
vt 0.000000 0.000000
vt 0.000000 0.000000
vt 0.000000 0.000000
vt 0.000000 0.000000
vt 0.000000 0.000000
vt 0.000000 0.000000
vt 0.000000 0.000000
vt 0.000000 0.000000
vt 0.000000 0.000000
vt 0.000000 0.000000
vt 0.000000 0.000000
vt 0.000000 0.000000
vt 0.000000 0.000000
vt 0.000000 0.000000
vt 0.000000 0.000000
vt 0.000000 0.000000
vt 0.000000 0.000000
vt 0.000000 0.000000
vt 0.000000 0.000000
vt 0.000000 0.000000
vt 0.000000 0.000000
vt 0.000000 0.000000
vt 0.000000 0.000000
vt 0.000000 0.000000
vt 0.000000 0.000000
vt 0.000000 0.000000
vt 0.000000 0.000000
vt 0.000000 0.000000
vt 0.000000 0.000000
vt 0.000000 0.000000
vt 0.000000 0.000000
vt 0.000000 0.000000
vt 0.000000 0.000000
vt 0.000000 0.000000
vt 0.000000 0.000000
vt 0.000000 0.000000
vt 0.000000 0.000000
vt 0.000000 0.000000
vt 0.000000 0.000000
vt 0.000000 0.000000
vt 0.000000 0.000000
vt 0.000000 0.000000
vt 0.000000 0.000000
vt 0.000000 0.000000
vt 0.000000 0.000000
vt 0.000000 0.000000
vt 0.000000 0.000000
vt 0.000000 0.000000
vt 0.000000 0.000000
vt 0.000000 0.000000
vt 0.000000 0.000000
vt 0.000000 0.000000
vt 0.000000 -0.496100
vt 1.000000 0.000000
vt 1.000000 -0.496100
vt 1.000000 -0.496100
vt 1.000000 0.000000
vt 0.000000 -0.496100
vt 0.000000 0.000000
vt 0.500000 -0.937500
vt 0.988300 4.941400
vt 0.011700 3.125000
vt 0.988300 4.941400
vt 0.011700 3.125000
vt 0.988300 4.941400
vt 0.011700 3.125000
vt 0.988300 4.941400
vt 0.011700 3.125000
vn 0.5188 -0.7711 0.3692
vn 0.3578 -0.8545 0.3767
vn 0.1850 -0.9096 0.3719
vn 0.3577 -0.8545 0.3768
vn 0.0043 -0.9250 0.3798
vn -0.1765 -0.9099 0.3753
vn -0.3493 -0.8550 0.3834
vn 0.0043 -0.9250 0.3799
vn -0.5106 -0.7719 0.3789
vn -0.6492 -0.6549 0.3869
vn -0.7664 -0.5164 0.3821
vn -0.8496 -0.3554 0.3897
vn -0.6491 -0.6549 0.3869
vn -0.9202 -0.0019 0.3914
vn -0.8501 0.3518 0.3918
vn -0.7671 0.5130 0.3852
vn -0.6501 0.6516 0.3908
vn -0.5117 0.7688 0.3836
vn -0.3505 0.8521 0.3886
vn 0.0029 0.9227 0.3855
vn 0.3565 0.8527 0.3819
vn 0.6564 0.6526 0.3784
vn 0.8569 0.3530 0.3756
vn 0.8569 0.3531 0.3756
vn 0.9275 -0.0004 0.3739
vn 0.8574 -0.3541 0.3735
vn 0.7742 -0.5153 0.3675
vn 0.0675 -0.3788 -0.9230
vn 0.1503 -0.3455 -0.9263
vn 0.1380 -0.3507 -0.9263
vn 0.2620 -0.2676 -0.9272
vn 0.3449 -0.1434 -0.9276
vn 0.3739 0.0031 -0.9275
vn 0.3447 0.1495 -0.9267
vn 0.2616 0.2736 -0.9256
vn 0.1374 0.3564 -0.9242
vn -0.0090 0.3855 -0.9227
vn -0.1554 0.3562 -0.9214
vn -0.2795 0.2732 -0.9205
vn -0.3624 0.1490 -0.9200
vn -0.3914 0.0025 -0.9202
vn -0.3622 -0.1439 -0.9209
vn -0.2791 -0.2680 -0.9221
vn -0.1549 -0.3509 -0.9235
vn -0.0843 -0.3789 -0.9216
vn 0.0674 -0.3787 -0.9230
vn 0.0669 0.3844 -0.9207
vn 0.1508 0.3509 -0.9242
vn -0.0085 -0.3799 -0.9250
vn -0.1555 0.3562 -0.9214
vn -0.0201 0.3854 -0.9225
vn -0.0669 -0.3844 0.9207
vn -0.1497 -0.3513 0.9242
vn -0.1374 -0.3564 0.9242
vn -0.2616 -0.2736 0.9256
vn -0.3447 -0.1495 0.9267
vn -0.3739 -0.0031 0.9275
vn -0.3449 0.1434 0.9276
vn -0.2620 0.2676 0.9272
vn -0.1380 0.3507 0.9263
vn 0.0085 0.3799 0.9250
vn 0.1549 0.3509 0.9235
vn 0.2791 0.2680 0.9221
vn 0.3622 0.1439 0.9209
vn 0.3914 -0.0025 0.9202
vn 0.3624 -0.1489 0.9201
vn 0.2795 -0.2732 0.9205
vn 0.1554 -0.3562 0.9214
vn 0.0849 -0.3843 0.9193
vn 0.7664 0.5164 -0.3821
vn 0.6307 0.6730 -0.3865
vn 0.6492 0.6549 -0.3869
vn 0.3493 0.8550 -0.3835
vn -0.0043 0.9250 -0.3799
vn -0.3578 0.8544 -0.3768
vn -0.6574 0.6539 -0.3745
vn -0.8574 0.3541 -0.3735
vn -0.9275 0.0004 -0.3739
vn -0.8569 -0.3531 -0.3756
vn -0.6564 -0.6526 -0.3785
vn -0.3565 -0.8527 -0.3819
vn -0.0029 -0.9227 -0.3855
vn 0.3505 -0.8521 -0.3886
vn 0.6501 -0.6516 -0.3908
vn 0.8502 -0.3518 -0.3918
vn 0.8501 -0.3518 -0.3918
vn 0.9202 0.0019 -0.3914
vn 0.8496 0.3554 -0.3897
vn 0.8603 0.3286 -0.3897
vn -0.7735 -0.5142 -0.3706
vn -0.6268 -0.6811 -0.3785
vn 0.3493 0.8550 -0.3834
vn -0.8569 -0.3531 -0.3757
vn -0.8737 -0.3100 -0.3750
vn 0.3902 0.0734 0.9178
vn 0.3914 -0.0135 0.9201
vn 0.3624 -0.1490 0.9200
vn 0.0090 -0.3855 0.9227
vn 0.3566 0.1573 0.9209
vn 0.3842 -0.8430 0.3764
vn 0.3578 -0.8544 0.3768
vn 0.6574 -0.6539 0.3745
vn 0.8574 -0.3540 0.3735
vn 0.8569 0.3530 0.3757
vn 0.6564 0.6526 0.3785
vn -0.8502 0.3518 0.3918
vn -0.8496 -0.3553 0.3897
vn 0.1850 -0.9097 0.3719
vn 0.0095 -0.0030 1.0000
vn -0.0095 0.0030 -1.0000
usemtl Tex_0026_0_png
s 1
f 1/1/1 2/2/1 3/3/2
f 2/2/3 4/4/3 3/3/4
f 3/3/4 4/4/3 5/5/5
f 4/4/6 6/6/7 5/5/8
f 5/5/8 6/6/7 7/7/7
f 6/6/7 8/8/9 7/7/7
f 7/7/7 8/8/9 9/9/10
f 8/8/11 10/10/12 9/9/13
f 9/9/13 10/10/12 11/11/12
f 10/10/12 12/12/14 11/11/12
f 11/11/12 12/12/14 13/13/14
f 12/12/14 14/14/15 13/13/14
f 13/13/14 14/14/15 15/15/15
f 14/14/15 16/16/16 15/15/15
f 15/15/15 16/16/16 17/17/17
f 16/16/18 18/18/19 17/17/17
f 17/17/17 18/18/19 19/19/19
f 18/18/19 20/20/20 19/19/19
f 19/19/19 20/20/20 21/21/20
f 20/20/20 22/22/21 21/21/20
f 21/21/20 22/22/21 23/23/21
f 22/22/21 24/24/22 23/23/21
f 23/23/21 24/24/22 25/25/22
f 24/24/22 26/26/23 25/25/22
f 25/25/22 26/26/23 27/27/24
f 26/26/23 28/28/25 27/27/24
f 27/27/24 28/28/25 29/29/25
f 28/28/25 30/30/26 29/29/25
f 29/29/25 30/30/26 31/31/26
f 30/30/26 32/32/27 31/31/26
f 31/31/26 32/32/27 1/1/27
f 32/32/1 2/2/1 1/1/1
f 33/33/28 34/34/29 35/35/30
f 34/34/29 36/36/31 35/35/30
f 35/35/30 36/36/31 37/37/31
f 36/36/31 38/38/32 37/37/31
f 37/37/31 38/38/32 39/39/32
f 38/38/32 40/40/33 39/39/32
f 39/39/32 40/40/33 41/41/33
f 40/40/33 42/42/34 41/41/33
f 41/41/33 42/42/34 43/43/34
f 42/42/34 44/44/35 43/43/34
f 43/43/34 44/44/35 45/45/35
f 44/44/35 46/46/36 45/45/35
f 45/45/35 46/46/36 47/47/36
f 46/46/36 48/48/37 47/47/36
f 47/47/36 48/48/37 49/49/37
f 48/48/37 50/50/38 49/49/37
f 49/49/37 50/50/38 51/51/38
f 50/50/38 52/52/39 51/51/38
f 51/51/38 52/52/39 53/53/39
f 52/52/39 54/54/40 53/53/39
f 53/53/39 54/54/40 55/55/40
f 54/54/40 56/56/41 55/55/40
f 55/55/40 56/56/41 57/57/41
f 56/56/41 58/58/42 57/57/41
f 57/57/41 58/58/42 59/59/42
f 58/58/42 60/60/43 59/59/42
f 59/59/42 60/60/43 61/61/43
f 60/60/43 62/62/44 61/61/43
f 61/61/43 62/62/44 63/63/44
f 62/62/44 64/64/45 63/63/44
f 63/63/44 64/64/45 33/33/45
f 64/64/46 34/34/46 33/33/46
f 33/33/47 65/65/48 63/63/36
f 65/65/48 66/66/35 63/63/36
f 63/63/36 66/66/35 61/61/35
f 66/66/35 67/67/34 61/61/35
f 61/61/35 67/67/34 59/59/34
f 67/67/34 68/68/33 59/59/34
f 59/59/34 68/68/33 57/57/33
f 68/68/33 69/69/32 57/57/33
f 57/57/33 69/69/32 55/55/32
f 69/69/32 70/70/31 55/55/32
f 55/55/32 70/70/31 53/53/31
f 70/70/31 71/71/30 53/53/31
f 53/53/31 71/71/30 51/51/30
f 71/71/30 72/72/49 51/51/30
f 51/51/30 72/72/49 49/49/49
f 72/72/49 73/73/44 49/49/49
f 49/49/49 73/73/44 47/47/44
f 73/73/44 74/74/43 47/47/44
f 47/47/44 74/74/43 45/45/43
f 74/74/43 75/75/42 45/45/43
f 45/45/43 75/75/42 43/43/42
f 75/75/42 76/76/41 43/43/42
f 43/43/42 76/76/41 41/41/41
f 76/76/41 77/77/40 41/41/41
f 41/41/41 77/77/40 39/39/40
f 77/77/40 78/78/39 39/39/40
f 39/39/40 78/78/39 37/37/39
f 78/78/39 79/79/50 37/37/39
f 37/37/39 79/79/50 35/35/50
f 79/79/50 80/80/37 35/35/50
f 35/35/50 80/80/37 33/33/51
f 80/80/37 65/65/47 33/33/51
f 81/81/52 7/7/53 82/82/54
f 7/7/53 9/9/55 82/82/54
f 82/82/54 9/9/55 83/83/55
f 9/9/55 11/11/56 83/83/55
f 83/83/55 11/11/56 84/84/56
f 11/11/56 13/13/57 84/84/56
f 84/84/56 13/13/57 85/85/57
f 13/13/57 15/15/58 85/85/57
f 85/85/57 15/15/58 86/86/58
f 15/15/58 17/17/59 86/86/58
f 86/86/58 17/17/59 87/87/59
f 17/17/59 19/19/60 87/87/59
f 87/87/59 19/19/60 88/88/60
f 19/19/60 21/21/61 88/88/60
f 88/88/60 21/21/61 89/89/61
f 21/21/61 23/23/62 89/89/61
f 89/89/61 23/23/62 90/90/62
f 23/23/62 25/25/63 90/90/62
f 90/90/62 25/25/63 91/91/63
f 25/25/63 27/27/64 91/91/63
f 91/91/63 27/27/64 92/92/64
f 27/27/64 29/29/65 92/92/64
f 92/92/64 29/29/65 93/93/65
f 29/29/65 31/31/66 93/93/65
f 93/93/65 31/31/66 94/94/66
f 31/31/66 1/1/67 94/94/66
f 94/94/66 1/1/67 95/95/67
f 1/1/67 3/3/68 95/95/67
f 95/95/67 3/3/68 96/96/68
f 3/3/68 5/5/69 96/96/68
f 96/96/68 5/5/69 81/81/69
f 5/5/52 7/7/52 81/81/52
f 97/97/70 66/66/71 98/98/72
f 66/66/71 65/65/73 98/98/72
f 98/98/72 65/65/73 99/99/73
f 65/65/73 80/80/74 99/99/73
f 99/99/73 80/80/74 100/100/74
f 80/80/74 79/79/75 100/100/74
f 100/100/74 79/79/75 101/101/75
f 79/79/75 78/78/76 101/101/75
f 101/101/75 78/78/76 102/102/76
f 78/78/76 77/77/77 102/102/76
f 102/102/76 77/77/77 103/103/77
f 77/77/77 76/76/78 103/103/77
f 103/103/77 76/76/78 104/104/78
f 76/76/78 75/75/79 104/104/78
f 104/104/78 75/75/79 105/105/79
f 75/75/79 74/74/80 105/105/79
f 105/105/79 74/74/80 106/106/80
f 74/74/80 73/73/81 106/106/80
f 106/106/80 73/73/81 107/107/81
f 73/73/81 72/72/82 107/107/81
f 107/107/81 72/72/82 108/108/82
f 72/72/82 71/71/83 108/108/82
f 108/108/82 71/71/83 109/109/83
f 71/71/83 70/70/84 109/109/83
f 109/109/83 70/70/84 110/110/84
f 70/70/84 69/69/85 110/110/84
f 110/110/84 69/69/85 111/111/86
f 69/69/85 68/68/87 111/111/86
f 111/111/86 68/68/87 112/112/87
f 68/68/87 67/67/88 112/112/87
f 112/112/87 67/67/88 97/97/89
f 67/67/88 66/66/70 97/97/89
f 58/58/90 8/8/91 60/60/80
f 8/8/91 6/6/81 60/60/80
f 60/60/80 6/6/81 62/62/81
f 6/6/81 4/4/82 62/62/81
f 62/62/81 4/4/82 64/64/82
f 4/4/82 2/2/83 64/64/82
f 64/64/82 2/2/83 34/34/83
f 2/2/83 32/32/84 34/34/83
f 34/34/83 32/32/84 36/36/84
f 32/32/84 30/30/85 36/36/84
f 36/36/84 30/30/85 38/38/85
f 30/30/85 28/28/87 38/38/85
f 38/38/85 28/28/87 40/40/87
f 28/28/87 26/26/88 40/40/87
f 40/40/87 26/26/88 42/42/88
f 26/26/88 24/24/72 42/42/88
f 42/42/88 24/24/72 44/44/72
f 24/24/72 22/22/92 44/44/72
f 44/44/72 22/22/92 46/46/92
f 22/22/92 20/20/74 46/46/92
f 46/46/92 20/20/74 48/48/74
f 20/20/74 18/18/75 48/48/74
f 48/48/74 18/18/75 50/50/75
f 18/18/75 16/16/76 50/50/75
f 50/50/75 16/16/76 52/52/76
f 16/16/76 14/14/77 52/52/76
f 52/52/76 14/14/77 54/54/77
f 14/14/77 12/12/78 54/54/77
f 54/54/77 12/12/78 56/56/78
f 12/12/78 10/10/93 56/56/78
f 56/56/78 10/10/93 58/58/94
f 10/10/93 8/8/90 58/58/94
f 113/113/95 85/85/96 114/114/65
f 85/85/96 86/86/97 114/114/65
f 114/114/65 86/86/97 115/115/97
f 86/86/97 87/87/67 115/115/97
f 115/115/97 87/87/67 116/116/67
f 87/87/67 88/88/68 116/116/67
f 116/116/67 88/88/68 117/117/68
f 88/88/68 89/89/98 117/117/68
f 117/117/68 89/89/98 118/118/98
f 89/89/98 90/90/54 118/118/98
f 118/118/98 90/90/54 119/119/54
f 90/90/54 91/91/55 119/119/54
f 119/119/54 91/91/55 120/120/55
f 91/91/55 92/92/56 120/120/55
f 120/120/55 92/92/56 121/121/56
f 92/92/56 93/93/57 121/121/56
f 121/121/56 93/93/57 122/122/57
f 93/93/57 94/94/58 122/122/57
f 122/122/57 94/94/58 123/123/58
f 94/94/58 95/95/59 123/123/58
f 123/123/58 95/95/59 124/124/59
f 95/95/59 96/96/60 124/124/59
f 124/124/59 96/96/60 125/125/60
f 96/96/60 81/81/61 125/125/60
f 125/125/60 81/81/61 126/126/61
f 81/81/61 82/82/62 126/126/61
f 126/126/61 82/82/62 127/127/62
f 82/82/62 83/83/63 127/127/62
f 127/127/62 83/83/63 128/128/63
f 83/83/63 84/84/64 128/128/63
f 128/128/63 84/84/64 113/113/99
f 84/84/64 85/85/95 113/113/99
f 118/118/3 109/109/100 117/117/101
f 109/109/100 110/110/102 117/117/101
f 117/117/101 110/110/102 116/116/102
f 110/110/102 111/111/103 116/116/102
f 116/116/102 111/111/103 115/115/103
f 111/111/103 112/112/25 115/115/103
f 115/115/103 112/112/25 114/114/25
f 112/112/25 97/97/104 114/114/25
f 114/114/25 97/97/104 113/113/104
f 97/97/104 98/98/105 113/113/104
f 113/113/104 98/98/105 128/128/105
f 98/98/105 99/99/21 128/128/105
f 128/128/105 99/99/21 127/127/21
f 99/99/21 100/100/20 127/127/21
f 127/127/21 100/100/20 126/126/20
f 100/100/20 101/101/19 126/126/20
f 126/126/20 101/101/19 125/125/19
f 101/101/19 102/102/17 125/125/19
f 125/125/19 102/102/17 124/124/17
f 102/102/17 103/103/106 124/124/17
f 124/124/17 103/103/106 123/123/106
f 103/103/106 104/104/14 123/123/106
f 123/123/106 104/104/14 122/122/14
f 104/104/14 105/105/12 122/122/14
f 122/122/14 105/105/12 121/121/107
f 105/105/12 106/106/13 121/121/107
f 121/121/107 106/106/13 120/120/13
f 106/106/13 107/107/7 120/120/13
f 120/120/13 107/107/7 119/119/7
f 107/107/7 108/108/6 119/119/7
f 119/119/7 108/108/6 118/118/6
f 108/108/108 109/109/108 118/118/108
usemtl Tex_0028_0_png
f 129/129/109 130/130/109 131/131/109
f 130/130/109 132/132/109 131/131/109
f 133/133/110 134/134/110 135/135/110
f 134/134/110 136/136/110 135/135/110
usemtl Tex_0027_0_png
f 137/137/109 139/138/109 138/139/109
f 137/137/109 141/140/109 140/141/109
f 140/141/109 142/142/109 137/137/109
f 142/142/109 143/143/109 137/137/109
f 137/137/109 143/143/109 139/138/109
f 138/139/109 144/144/109 137/137/109
f 144/144/109 145/145/109 137/137/109
f 137/137/109 145/145/109 141/140/109
